<?xml version="1.0" encoding="UTF-8" standalone="no"?>
<svg
   xmlns:dc="http://purl.org/dc/elements/1.1/"
   xmlns:cc="http://creativecommons.org/ns#"
   xmlns:rdf="http://www.w3.org/1999/02/22-rdf-syntax-ns#"
   xmlns:svg="http://www.w3.org/2000/svg"
   xmlns="http://www.w3.org/2000/svg"
   viewBox="0 0 472.2226 102.96832"
   height="102.96832"
   width="472.2226"
   version="1.1"
   id="svg3348">
  <metadata
     id="metadata3354">
    <rdf:RDF>
      <cc:Work
         rdf:about="">
        <dc:format>image/svg+xml</dc:format>
        <dc:type
           rdf:resource="http://purl.org/dc/dcmitype/StillImage" />
        <dc:title></dc:title>
      </cc:Work>
    </rdf:RDF>
  </metadata>
  <defs
     id="defs3352" />
  <path
     id="path3358"
     d="m 26.984687,80.218321 c -0.0084,-12.5125 -0.414175,-23.37996 -0.901674,-24.14992 -0.731351,-1.1551 -1.364353,-1.02393 -3.619546,0.75 -1.503251,1.18246 -4.152148,2.14992 -5.886436,2.14992 -4.537172,0 -11.6935403,-3.94722 -14.3189593,-7.89788 C 0.1240279,47.859191 0,46.686571 0,29.721571 0,15.230761 0.3128997,11.111201 1.6232867,8.3497612 4.1176017,3.0933812 8.3796061,0.60262123 15.674406,0.13812123 c 5.327316,-0.33922 6.897332,-0.0225 10.542543,2.12665997 7.592347,4.47637 15.698656,17.3858398 17.693587,28.1774098 C 44.509741,33.683591 45,45.723451 45,57.197441 c 0,20.81622 -0.0054,20.86715 -2.454545,23.31634 -1.35,1.35 -2.925,2.45454 -3.5,2.45454 -0.657576,0 -1.045455,3.71014 -1.045455,10 l 0,9.999999 -5.5,0 -5.5,0 -0.01531,-22.749999 z M 74,92.968321 c 0,-6 -0.4,-10 -1,-10 -2.648646,0 -5,-4.11797 -5,-8.7566 0,-2.61613 -0.442304,-6.29883 -0.982898,-8.18377 -0.540595,-1.88494 -0.878095,-3.52987 -0.75,-3.6554 0.128094,-0.12552 2.932898,0.47009 6.232898,1.32359 4.780854,1.23649 7.219146,1.34061 12,0.51238 3.3,-0.57169 6.747507,-1.3424 7.661127,-1.7127 1.45958,-0.59158 1.55348,-0.20943 0.77386,3.14962 -0.488,2.10258 -0.89801,5.96038 -0.91113,8.57288 -0.0232,4.62759 -2.390146,8.75 -5.023857,8.75 -0.6,0 -1,4 -1,10 l 0,9.999999 -6,0 -6,0 0,-9.999999 z m 211,-25.5 0,-28.5 4,0 c 3.47247,0 4.00401,0.29674 4.03041,2.25 0.0263,1.9448 0.16298,2.02279 1.00771,0.57501 1.30659,-2.23934 7.13128,-4.07158 10.36414,-3.26018 1.432,0.35941 3.72731,1.98888 5.10069,3.62105 2.41942,2.87532 2.49705,3.43305 2.49705,17.94051 0,11.39902 -0.36051,15.67008 -1.51035,17.89363 -2.57288,4.9754 -7.40554,6.31566 -12.73965,3.53312 l -2.75,-1.43453 0,7.94069 0,7.9407 -5,0 -5,0 0,-28.5 z m 16.5,-6.9863 c 0,-11.70503 -0.1774,-13.02047 -1.79804,-13.33258 -3.9088,-0.75276 -4.70196,1.48089 -4.70196,13.24133 0,11.78464 0.7127,13.90701 4.48832,13.36587 1.8975,-0.27195 2.01168,-1.0254 2.01168,-13.27462 z M 196.19809,81.295511 C 190.54454,78.509281 189.5,75.233821 189.5,60.291651 c 0,-11.7356 0.22579,-13.48544 2.06453,-16 3.08974,-4.22534 8.62187,-6.63658 13.38145,-5.83245 7.43076,1.25541 11.03671,7.21476 11.04844,18.25912 l 0.006,5.25 -8.5,0 -8.5,0 0,4.92857 c 0,5.26113 2.08439,8.63676 4.71073,7.62894 0.79906,-0.30663 1.63572,-0.55751 1.85924,-0.55751 0.22352,0 0.69423,-1.8 1.04602,-4 0.63597,-3.97713 0.66527,-4 5.12536,-4 l 4.48574,0 -0.69147,4.75 c -0.88414,6.07354 -2.83607,9.05977 -7.08128,10.83353 -4.40246,1.83946 -8.16324,1.76081 -12.25625,-0.25634 z M 206,52.436941 c 0,-3.27274 -0.4544,-4.70576 -1.63592,-5.15915 -2.79335,-1.07191 -4.8442,1.12598 -5.17158,5.54238 -0.30722,4.14448 -0.30434,4.14815 3.25,4.14815 3.55328,0 3.5575,-0.005 3.5575,-4.53138 z m 17.83102,29.05602 c -3.3162,-1.86823 -5.24678,-7.38799 -4.50879,-12.89123 0.68309,-5.09395 4.46907,-8.767 11.67262,-11.32445 5.07061,-1.80021 5.09383,-1.82831 4.8002,-5.80896 -0.25974,-3.52132 -0.59423,-4 -2.79505,-4 -2.08957,0 -2.55145,0.53357 -2.81336,3.25 -0.3019,3.13123 -0.4755,3.25 -4.75,3.25 l -4.43664,0 0,-4.36514 c 0,-5.55676 2.78179,-9.22974 8.06843,-10.65328 5.44252,-1.46552 10.20104,-0.35319 13.58347,3.17521 2.83279,2.95504 2.84994,3.0513 3.18982,17.90711 0.18794,8.21486 0.75044,14.9361 1.25,14.9361 0.49955,0 0.90828,1.8 0.90828,4 0,3.6737 -0.21908,4 -2.68555,4 -1.47705,0 -3.72234,-0.97401 -4.98952,-2.16447 -2.20202,-2.06869 -2.38951,-2.08706 -4.23684,-0.41525 -2.65118,2.39929 -8.95097,2.9669 -12.25707,1.10436 z M 234.8,73.768321 c 1.65879,-1.65879 1.5932,-10.8 -0.0775,-10.8 -3.13501,0 -5.72251,3.11542 -5.72251,6.89004 0,2.07715 0.3,4.07663 0.66667,4.4433 1.06133,1.06133 3.8259,0.7741 5.13333,-0.53334 z m 22.08805,7.75452 c -4.35064,-2.45474 -5.06732,-5.85605 -4.71187,-22.36229 0.30519,-14.17219 0.4587,-15.18053 2.66865,-17.53007 3.12391,-3.32124 6.39532,-4.00648 10.64675,-2.23012 l 3.50842,1.46591 0,-8.94897 0,-8.94897 5,0 5,0 0,29.49999 0,29.5 -4,0 c -3.05538,0 -4,-0.39083 -4,-1.65499 0,-1.51059 -0.16772,-1.5032 -1.92238,0.0848 -2.62068,2.37168 -8.94528,2.95527 -12.18957,1.12476 z m 10.57137,-8.1568 c 2.32511,-2.3251 1.83736,-24.18261 -0.5735,-25.70007 -0.88774,-0.55877 -2.35024,-0.73345 -3.25,-0.38818 -1.39218,0.53423 -1.63592,2.46504 -1.63592,12.95915 0,8.25774 0.39642,12.7278 1.2,13.53138 1.58638,1.58638 2.34214,1.515 4.25942,-0.40228 z m 89.91261,8.01371 c -5.6604,-2.79228 -6.58633,-6.08636 -6.20758,-22.08394 0.31752,-13.41084 0.46641,-14.31164 2.77042,-16.76124 5.08571,-5.40706 15.04455,-5.40706 20.13026,0 2.30401,2.4496 2.4529,3.3504 2.77042,16.76124 0.2821,11.91519 0.0624,14.68176 -1.37911,17.36983 -3.08294,5.7488 -11.52561,7.94957 -18.08441,4.71411 z m 8.79923,-8.06642 C 367.71983,71.911901 368,70.063371 368,61.247591 c 0,-11.0769 -0.89707,-14.27927 -4,-14.27927 -3.10731,0 -4,3.20538 -4,14.36283 0,8.20695 0.34251,10.83683 1.57143,12.06574 1.96548,1.96549 2.34325,1.95863 4.59983,-0.0836 z m 57.24718,8.68614 c -1.14486,-0.46314 -3.31367,-2.30636 -4.81959,-4.09604 l -2.73802,-3.25395 0.31959,-14.76303 c 0.30413,-14.04927 0.4373,-14.8882 2.75445,-17.35182 3.4681,-3.68732 9.19573,-5.03933 14.32281,-3.38091 6.18037,1.99912 8.16487,5.43573 8.59386,14.88211 l 0.36023,7.93249 -8.60588,0 -8.60589,0 0,4.92857 c 0,4.63977 1.70065,8.07143 4,8.07143 1.83672,0 4,-3.28355 4,-6.07143 0,-2.80423 0.19106,-2.92857 4.5,-2.92857 4.34393,0 4.5,0.10517 4.5,3.03212 0,9.92166 -9.59543,16.6343 -18.58156,12.99903 z M 433,53.902581 c 0,-4.09469 -1.63799,-6.93426 -4,-6.93426 -2.36201,0 -4,2.83957 -4,6.93426 0,2.91003 0.20316,3.06574 4,3.06574 3.79684,0 4,-0.15571 4,-3.06574 z m 19.31471,27.65745 C 448.66626,79.909801 446,75.458631 446,71.017981 c 0,-2.94774 0.15038,-3.04966 4.5,-3.04966 4.02899,0 4.5,0.24074 4.5,2.3 0,4.54706 4.98793,6.4596 7.00709,2.68675 1.51004,-2.82152 0.2189,-4.65369 -6.65136,-9.43856 -3.63647,-2.53266 -6.55805,-5.51027 -7.70886,-7.85672 -4.94765,-10.08798 4.77608,-20.17402 15.86957,-16.46088 4.45701,1.49182 7.12177,4.81144 8.04289,10.01941 l 0.66325,3.75 -4.54487,0 c -4.21466,0 -4.56785,-0.1998 -4.86129,-2.75 -0.26642,-2.31544 -0.78831,-2.75 -3.30272,-2.75 -2.07944,0 -3.09146,0.54602 -3.33258,1.79804 -0.46448,2.41184 1.21162,4.25205 7.58809,8.33103 8.91849,5.70508 10.84879,15.21447 4.39784,21.66542 -3.57705,3.57705 -10.73083,4.61373 -15.85234,2.29722 z M 149,52.468321 l 0,-29.49999 5.5,0 5.5,0 0,12.49999 0,12.5 6,0 6,0 0,-12.5 0,-12.49999 5.5,0 5.5,0 0,29.49999 0,29.5 -5.5,0 -5.5,0 0,-12 0,-12 -6,0 -6,0 0,12 0,12 -5.5,0 -5.5,0 0,-29.5 z m 169,0 0,-29.49999 5,0 5,0 0,9.46627 0,9.46627 3.47614,-2.05097 c 4.28919,-2.53069 8.62351,-1.84164 11.51167,1.83006 1.85475,2.35792 2.01219,4.03419 2.01219,21.42322 l 0,18.86514 -4.97639,0 -4.97638,0 -0.27362,-17.23719 C 334.51756,48.600281 334.37588,47.470091 332.5661,47.122391 328.72699,46.384811 328,49.415771 328,66.159451 l 0,15.80887 -5,0 -5,0 0,-29.5 z m 65,8 0,-21.5 4.5,0 c 3.95359,0 4.5,0.26402 4.5,2.17432 0,2.17315 10e-4,2.17302 2.55637,-0.22728 3.4372,-3.22908 9.53357,-3.30061 12.68858,-0.14888 2.16175,2.1595 2.26785,3.05844 2.56448,21.72727 l 0.30942,19.47457 -5.03581,0 -5.03581,0 -0.27362,-17.23719 C 399.51756,48.600281 399.37588,47.470091 397.5661,47.122391 393.72699,46.384811 393,49.415771 393,66.159451 l 0,15.80887 -5,0 -5,0 0,-21.5 z m -312.596439,-3.2657 c -7.680271,-2.74723 -12.860114,-7.38497 -16.495203,-14.76888 -2.953457,-5.99933 -3.131588,-6.96602 -2.707563,-14.69362 0.522268,-9.51798 2.525938,-14.2445 8.464471,-19.9670798 C 65.464598,2.1846012 71.141853,0.01446123 80,6.1232546e-5 89.180439,-0.01483877 95.728147,2.6889412 101.19343,8.7516712 c 5.70517,6.3288498 7.10897,9.8121998 7.60247,18.8645698 0.38835,7.1237 0.13121,8.83155 -2.04567,13.58648 -6.45174,14.09245 -22.244206,21.04434 -36.346669,15.9999 z"
     style="fill:#fefefe" />
</svg>
