<?xml version="1.0" encoding="UTF-8" standalone="no"?>
<svg
   xmlns:dc="http://purl.org/dc/elements/1.1/"
   xmlns:cc="http://creativecommons.org/ns#"
   xmlns:rdf="http://www.w3.org/1999/02/22-rdf-syntax-ns#"
   xmlns:svg="http://www.w3.org/2000/svg"
   xmlns="http://www.w3.org/2000/svg"
   viewBox="0 0 542.01416 108.91158"
   height="108.91158"
   width="542.01416"
   version="1.1"
   id="svg3360">
  <metadata
     id="metadata3366">
    <rdf:RDF>
      <cc:Work
         rdf:about="">
        <dc:format>image/svg+xml</dc:format>
        <dc:type
           rdf:resource="http://purl.org/dc/dcmitype/StillImage" />
        <dc:title></dc:title>
      </cc:Work>
    </rdf:RDF>
  </metadata>
  <defs
     id="defs3364" />
  <path
     id="path3370"
     d="m 78.278688,107.45841 c -2.879498,-0.77549 -7.545816,-2.58072 -10.369595,-4.01164 l -5.134144,-2.60167 -9.566046,1.6306 C 25.802696,107.14726 7.2367902,104.41839 1.6090702,94.89142 -0.88387463,90.6712 -0.43598863,82.82552 2.6466072,76.71675 6.1009462,69.8713 20.215578,55.92706 30.749986,48.95263 37.896043,44.22151 39.132284,42.97071 40.092597,39.5 42.174732,31.97486 48.409177,21.59686 54.510277,15.5 65.145652,4.87201 77.414456,0 93.542736,0 103.36723,0 110.29808,1.59444 118.47664,5.73605 l 4.9625,2.5130103 9.35085,-1.6702303 c 41.74215,-7.45587 62.88097,3.74275 50.4787,26.74189 -3.66101,6.7891 -14.71739,17.62087 -26.54167,26.00248 -9.0577,6.42053 -9.6978,7.11029 -11.13082,11.99454 -4.84243,16.5047 -19.6866,30.77758 -37.51357,36.06982 -6.74068,2.0011 -22.497542,2.03855 -29.803942,0.0709 z m 35.057852,-9.81176 c 9.07361,-4.39791 17.65213,-12.36497 21.99,-20.42259 C 136.87337,74.35083 137.87895,72 137.56117,72 c -0.31779,0 -5.85837,2.64332 -12.31242,5.87406 -13.10297,6.55902 -30.891024,13.7904 -42.234612,17.16964 -4.125,1.22883 -7.95,2.49303 -8.5,2.80934 -0.55,0.316303 1.475,1.375203 4.5,2.35312 4.15127,1.34201 8.07484,1.71107 15.999998,1.50499 9.840484,-0.25588 10.991324,-0.51117 18.322404,-4.0645 z M 56.828483,94.45574 C 103.78754,84.94761 160.87527,54.59187 175.93605,31.12167 c 4.42594,-6.89722 4.8251,-10.08044 1.7259,-13.76362 -4.49099,-5.33725 -15.46931,-7.19992 -31.96659,-5.42372 -5.9164,0.637 -11.66577,1.49432 -12.77638,1.90516 -1.94136,0.71816 -1.94955,0.80979 -0.21206,2.37492 1.5565,1.4021 2.97259,1.49698 10.20766,0.6839 19.09485,-2.1459 28.73732,3.60414 24.59655,14.66751 -1.86121,4.97283 -7.57436,10.75718 -10.14127,10.26765 -3.05537,-0.58268 -2.79417,-4.47822 0.57427,-8.56472 1.6885,-2.04844 3.07,-4.73834 3.07,-5.97754 0,-2.24127 -0.23798,-2.36094 -7.65328,-3.84874 -1.1843,-0.23761 -4.8378,-0.15144 -8.11889,0.1915 l -5.96561,0.62353 2.35685,4.12125 c 3.19986,5.59538 3.08435,9.59739 -0.36907,12.78694 C 126.6506,54.66258 67.778835,78.99254 49.718683,78.9987 45.018199,79.0007 41.432956,75.74941 40.46912,70.61173 40.09646,68.62528 39.36525,67 38.844209,67 35.872565,67 25.014138,78.66295 25.014138,81.85477 c 0,0.68601 1.575,1.90536 3.5,2.70967 2.686136,1.12234 3.5,2.04791 3.5,3.98036 0,3.23319 -2.166257,4.02157 -7.03889,2.56169 -4.717624,-1.41343 -6.96111,-4.35697 -6.96111,-9.13322 0,-6.14266 5.418325,-13.04062 17.847329,-22.72108 1.512703,-1.17818 2.223832,-2.61939 2,-4.0533 -0.337916,-2.16477 -0.482828,-2.12855 -5.347329,1.33635 C 23.361309,63.05463 14.761202,71.32386 10.866023,77.35045 3.7922722,88.29492 6.3472922,94.246 19.310677,97.0195 25.876226,98.424193 43.01227,97.25321 56.828483,94.45574 Z M 38.379131,90.50877 c -1.296078,-3.37752 0.98361,-4.88551 9.220057,-6.09897 19.536691,-2.87828 47.790188,-12.55984 71.757062,-24.5888 8.86357,-4.44862 12.15788,-4.67108 12.15788,-0.821 0,2.21572 -1.59703,3.29598 -14.04456,9.5 -23.159314,11.54291 -54.550263,21.77274 -71.105425,23.17217 -6.418068,0.54252 -7.384419,0.40173 -7.985014,-1.1634 z M 139.05396,53.54799 c -0.66279,-0.79861 -0.94094,-2.26111 -0.61812,-3.25 C 139.23113,47.86178 145.40231,44 148.50011,44 c 2.07633,0 2.51371,0.47877 2.51223,2.75 -0.001,2.15679 -0.9408,3.34321 -4.35486,5.5 -4.98397,3.14857 -5.9332,3.31061 -7.60352,1.29799 z M 68.238651,67.88765 C 80.754116,64.17249 100.05309,56.4393 113.51413,49.74553 c 10.7344,-5.33789 23.5,-13.3548 23.5,-14.75821 0,-2.52936 -9.36968,-14.06795 -14.72835,-18.1377 C 113.89772,10.47914 106.54202,7.81884 95.682186,7.22802 84.707688,6.63096 76.348278,8.6813903 68.235274,13.96032 56.902309,21.3344 49.480719,31.68075 46.521781,44.23084 c -1.899119,8.05495 -1.879409,12.23982 0.09861,20.93649 l 1.60625,7.06214 4.868263,-0.6458 c 2.677545,-0.35519 9.492233,-2.0184 15.14375,-3.69602 z M 116.51413,28.79071 c -3.14397,-3.13721 -13.83442,-8.78857 -16.627544,-8.78992 -2.4284,-10e-4 -4.13744,-2.59051 -3.34915,-5.07421 0.60531,-1.90717 1.19701,-2.0997 4.895144,-1.59282 11.07468,1.51796 25.90928,12.04266 23.99725,17.02533 -0.99262,2.58672 -5.55616,1.78393 -8.9157,-1.56838 z M 78.189242,20.7751 c -0.646307,-0.64631 -1.175104,-2.00806 -1.175104,-3.02613 0,-2.23616 5.9851,-5.0033 9.85305,-4.55545 2.19016,0.25359 2.64695,0.81178 2.64695,3.23453 0,3.0132 0.009,3.00749 -7.574896,4.88477 -1.483332,0.36718 -3.073053,0.13923 -3.75,-0.53772 z M 238.9989,78.75 c -5.41199,-2.74317 -7.93495,-6.86713 -8.69268,-14.20883 L 229.73432,59 l 6.13991,0 6.1399,0 0,3.27749 c 0,4.76647 2.43323,7.72251 6.3567,7.72251 4.24817,0 5.6433,-1.55039 5.6433,-6.27132 0,-3.39284 -0.63914,-4.44956 -5.17128,-8.55 -16.9247,-15.31252 -18.78819,-18.29481 -17.36435,-27.78964 1.76565,-11.77418 16.57615,-17.9076997 27.37857,-11.33836 4.71946,2.87007 7.14892,7.52274 7.15332,13.69932 l 0.004,5.25 -5.5,0 c -5.17187,0 -5.5,-0.14635 -5.5,-2.45295 0,-6.19736 -4.44226,-9.98628 -8.90686,-7.5969 -3.0561,1.63558 -2.80013,7.05619 0.51952,11.00136 1.43696,1.70773 5.22297,5.11356 8.41335,7.56851 6.26042,4.81728 9.54699,9.31919 11.41026,15.62969 1.1455,3.87958 1.32895,3.26862 6.02781,-20.07418 L 277.32483,15 l 7.11461,0 7.11461,0 6.27283,31.75 c 3.45005,17.4625 6.25363,32.0875 6.23017,32.5 -0.0235,0.4125 -2.90486,0.75 -6.40311,0.75 l -6.36046,0 -0.88954,-6.25 -0.88955,-6.25 -5.5,0 -5.5,0 -1.02523,6 -1.02524,6 -6.25599,0.29853 -6.256,0.29852 0.62417,-2.79852 c 0.3433,-1.53919 0.84739,-3.69853 1.1202,-4.79853 0.32738,-1.32002 -0.2992,-0.89423 -1.84294,1.25235 -5.08655,7.0729 -16.30824,9.32934 -24.8542,4.99765 z m 47.39669,-30 c -0.73781,-4.5375 -1.35047,-9.1125 -1.36147,-10.16667 -0.0431,-4.12938 -1.34753,-0.22301 -2.96339,8.87423 L 280.37581,57 l 3.68063,0 3.68062,0 -1.34147,-8.25 z m 57.89299,30.21147 c -2.3561,-1.19673 -5.23181,-3.76447 -6.5,-5.80388 -2.15351,-3.4631 -2.29146,-4.81413 -2.59437,-25.40759 L 334.87429,26 l -5.93008,0 -5.93008,0 0,27 0,27 -6,0 -6,0 0,-27 0,-27 -6,0 -6,0 0,-5.5 0,-5.5 24.5,0 24.5,0 0,25.5 c 0,24.16666 0.10458,25.60457 2,27.5 1.1,1.1 2.9,2 4,2 1.1,0 2.9,-0.9 4,-2 1.89542,-1.89543 2,-3.33334 2,-27.5 l 0,-25.5 6.04456,0 6.04455,0 -0.29455,27.92883 c -0.27844,26.40071 -0.40737,28.07981 -2.35635,30.68821 -3.90181,5.22196 -7.03336,6.79783 -14.22018,7.15595 -5.3494,0.26656 -7.57888,-0.10249 -10.94358,-1.81152 z M 376.01413,47.5 l 0,-32.5 12.85212,0 c 11.72232,0 13.14953,0.20043 16.23543,2.28001 4.80634,3.23899 5.88092,6.06672 5.89771,15.51965 0.0146,8.23638 -1.50038,13.53871 -4.11763,14.41113 -0.71347,0.23782 -0.13297,1.43296 1.47896,3.04489 2.46003,2.46003 2.6567,3.29443 2.69851,11.44886 0.0269,5.24157 0.60016,10.00764 1.41879,11.79546 1.20203,2.62514 1.38382,-0.8423 1.45489,-27.75 l 0.0812,-30.75 5.82647,0 5.82646,0 7.42354,17.18238 7.42353,17.18238 0.27361,-17.18238 L 441.06134,15 l 5.97638,0 5.97639,0 0,32.55226 0,32.55226 -5.19292,-0.30226 L 442.62827,79.5 434.57119,62.04048 426.51411,44.58097 426.24104,62.29048 425.96796,80 414.74104,79.9847 c -6.17481,-0.008 -11.76128,-0.35508 -12.41437,-0.77035 -2.20798,-1.40395 -3.31256,-6.30837 -3.31256,-14.708 0,-9.59275 -1.09287,-11.50633 -6.57143,-11.50633 l -3.42857,0 0,13.5 0,13.5 -6.5,0 -6.5,0 0,-32.5 z m 21.96482,-6.43426 c 0.56935,-1.06384 1.03518,-4.4067 1.03518,-7.42857 C 399.01413,27.12356 397.39846,25 392.4427,25 l -3.42857,0 0,9 0,9 3.96482,0 c 2.89644,0 4.24376,-0.52122 5,-1.93426 z M 461.01413,64 l 0,-15 5.8,0 c 3.19,0 6.34,0.54 7,1.2 0.93333,0.93333 1.2,0.93333 1.2,0 0,-0.66 1.125,-1.2 2.5,-1.2 l 2.5,0 0,12.56336 0,12.56335 3.25,-0.31335 3.25,-0.31336 1.94056,-12.25 1.94056,-12.25 3.13686,0 3.13686,0 1.54369,9.25 1.54368,9.25 0.12889,-9.25 0.1289,-9.25 2.79676,0 c 2.59694,0 2.9835,0.55372 5.41038,7.75 l 2.61363,7.75 0.0896,-7.75 c 0.0876,-7.5761 0.14573,-7.75 2.58963,-7.75 l 2.5,0 0,15 0,15 -2.36985,0 c -2.0538,0 -2.77888,-1.10026 -5.43683,-8.25 l -3.06698,-8.25 -0.0632,8.25 -0.0631,8.25 -4.525,0 c -4.22778,0 -4.56441,-0.19706 -5.125,-3 -0.41067,-2.05334 -1.19167,-3 -2.475,-3 -1.41667,0 -1.875,0.73333 -1.875,3 l 0,3 -8,0 -8,0 0,-7.2 c 0,-5.6 -0.26667,-6.93334 -1.2,-6 -0.66,0.66 -2.685,1.2 -4.5,1.2 l -3.3,0 0,6 c 0,5.73333 -0.11111,6 -2.5,6 l -2.5,0 0,-15 z m 33,0.83333 c 0,-4.91266 -0.47445,-4.77272 -1.41265,0.41667 -0.42922,2.37409 -0.29444,3.75 0.36734,3.75 0.57492,0 1.04531,-1.875 1.04531,-4.16667 z m -24.1925,-6.59196 C 470.09088,54.52752 469.87323,54 468.07163,54 c -1.77674,0 -2.0575,0.62406 -2.0575,4.57332 0,3.81534 0.29005,4.51831 1.75,4.24137 1.27656,-0.24214 1.83319,-1.47941 2.0575,-4.57332 z M 517.01413,64 l 0,-15 12.5,0 12.5,0 0,2.5 c 0,1.83333 -0.53333,2.5 -2,2.5 -1.89333,0 -2,0.66666 -2,12.5 l 0,12.5 -2.5,0 -2.5,0 0,-12.5 0,-12.5 -5.5,0 -5.5,0 0,3.5 c 0,3.06666 0.30952,3.5 2.5,3.5 2,0 2.5,0.5 2.5,2.5 0,2 -0.5,2.5 -2.5,2.5 -2.25,0 -2.5,0.4 -2.5,4 0,3.90476 0.0833,4 3.5,4 3.06667,0 3.5,0.30952 3.5,2.5 0,2.38889 -0.26667,2.5 -6,2.5 l -6,0 0,-15 z m -55.4433,-21.22251 c -0.85618,-1.22238 -1.5567,-3.47238 -1.5567,-5 0,-2.29599 0.43339,-2.77749 2.5,-2.77749 1.77899,0 2.5,0.54149 2.5,1.87755 0,2.7191 2.42812,4.51645 3.82601,2.83209 1.3287,-1.60098 -0.41023,-5.33313 -4.83067,-10.36774 -5.63915,-6.42263 -3.65055,-15.36152 3.40965,-15.32659 3.56886,0.0177 4.82048,0.69914 6.40006,3.48469 1.05692,1.86384 1.1362,1.81278 1.16454,-0.75 0.0294,-2.65751 0.21244,-2.75 5.44251,-2.75 l 5.4121,0 0.67652,4.00425 c 0.78629,4.654 2.14223,4.41593 3.07184,-0.53933 L 490.23671,14 l 11.38871,0 11.38871,0 0,6.5 c 0,6.26666 0.0897,6.5 2.5,6.5 2.41026,0 2.5,-0.23334 2.5,-6.5 0,-6.26667 0.0897,-6.5 2.5,-6.5 l 2.5,0 0,15.5 0,15.5 -2.5,0 c -2.41026,0 -2.5,-0.23334 -2.5,-6.5 0,-6.26667 -0.0897,-6.5 -2.5,-6.5 -2.41026,0 -2.5,0.23333 -2.5,6.5 0,6.26666 -0.0897,6.5 -2.5,6.5 l -2.5,0 0,-12.5 c 0,-11.83334 -0.10667,-12.5 -2,-12.5 -1.89333,0 -2,0.66666 -2,12.5 l 0,12.5 -2.5,0 -2.5,0 0,-12.5 0,-12.5 -2.41963,0 c -2.00145,0 -2.69471,0.82817 -4.01123,4.79184 -1.53795,4.63033 -1.50695,5.04069 0.91963,12.17515 1.38118,4.06082 2.51123,7.52949 2.51123,7.70816 0,0.17867 -1.32384,0.32485 -2.94188,0.32485 -2.65218,0 -3.07571,-0.46775 -4.30103,-4.75 l -1.35915,-4.75 -1.21337,4.75 -1.21337,4.75 -4.9856,0 c -4.48531,0 -4.9856,-0.22302 -4.9856,-2.22251 l 0,-2.2225 -1.5567,2.2225 c -2.22301,3.17379 -9.66359,3.17379 -11.8866,0 z M 483.95222,29.5 c -0.0331,-1.1 -0.88662,-4.475 -1.89659,-7.5 l -1.83632,-5.5 -0.0558,12.5 -0.0558,12.5 1.95241,-5 c 1.07383,-2.75 1.92529,-5.9 1.89213,-7 z m -8.93809,0 c 0,-5.15803 -0.15112,-5.5 -2.43045,-5.5 -1.7554,0 -2.5192,-0.62209 -2.75,-2.23979 -0.17575,-1.23188 -1.10705,-2.38987 -2.06955,-2.57332 -3.03705,-0.57884 -2.00652,3.28492 2.25,8.43589 2.2,2.66231 4,5.4113 4,6.10889 0,0.69758 0.225,1.26833 0.5,1.26833 0.275,0 0.5,-2.475 0.5,-5.5 z"
     style="fill:#fefefe" />
</svg>
