<?xml version="1.0" encoding="UTF-8" standalone="no"?>
<!-- Created with Inkscape (http://www.inkscape.org/) -->

<svg
   xmlns:dc="http://purl.org/dc/elements/1.1/"
   xmlns:cc="http://creativecommons.org/ns#"
   xmlns:rdf="http://www.w3.org/1999/02/22-rdf-syntax-ns#"
   xmlns:svg="http://www.w3.org/2000/svg"
   xmlns="http://www.w3.org/2000/svg"
   xmlns:sodipodi="http://sodipodi.sourceforge.net/DTD/sodipodi-0.dtd"
   xmlns:inkscape="http://www.inkscape.org/namespaces/inkscape"
   id="svg3476"
   version="1.1"
   inkscape:version="0.91 r13725"
   width="72"
   height="44"
   viewBox="0 0 72 44"
   sodipodi:docname="apple-touch-icon-svg-72x44.svg">
  <metadata
     id="metadata3482">
    <rdf:RDF>
      <cc:Work
         rdf:about="">
        <dc:format>image/svg+xml</dc:format>
        <dc:type
           rdf:resource="http://purl.org/dc/dcmitype/StillImage" />
        <dc:title></dc:title>
      </cc:Work>
    </rdf:RDF>
  </metadata>
  <defs
     id="defs3480" />
  <sodipodi:namedview
     pagecolor="#ffffff"
     bordercolor="#666666"
     borderopacity="1"
     objecttolerance="10"
     gridtolerance="10"
     guidetolerance="10"
     inkscape:pageopacity="0"
     inkscape:pageshadow="2"
     inkscape:window-width="1366"
     inkscape:window-height="705"
     id="namedview3478"
     showgrid="false"
     inkscape:zoom="2.2677165"
     inkscape:cx="63.059028"
     inkscape:cy="39.330845"
     inkscape:window-x="-8"
     inkscape:window-y="32"
     inkscape:window-maximized="1"
     inkscape:current-layer="svg3476"
     fit-margin-top="0"
     fit-margin-left="0"
     fit-margin-right="0"
     fit-margin-bottom="0" />
  <path
     style="fill:#101010"
     d="m 45.476875,42.70461 c -1.446494,-1.241337 -1.599805,-1.749308 -1.790168,-5.931452 -0.177943,-3.909308 -0.07608,-4.57385 0.701082,-4.57385 0.745449,0 0.909273,0.689804 0.909273,3.828607 0,4.312718 0.977863,6.339596 3.058523,6.339596 2.844066,0 3.169823,-1.234791 3.169823,-12.01527 0,-6.441706 0.213047,-10.080523 0.604324,-10.321785 0.332378,-0.204945 0.742697,0.155287 0.911822,0.800516 0.251814,0.960711 0.504726,1.067832 1.396695,0.591571 1.325495,-0.707738 6.111664,-0.459857 6.296697,0.326113 0.07314,0.310695 -1.232307,0.701656 -2.901,0.868804 -3.888792,0.389524 -4.609898,1.336844 -4.609898,6.056034 0,3.492341 0.03877,3.58823 1.27398,3.151093 2.0171,-0.713843 6.236476,-0.56244 6.507199,0.233496 0.169293,0.497712 -0.533378,0.706126 -2.3807,0.706126 -3.637365,0 -5.400479,1.757842 -5.400479,5.384328 0,2.132842 -0.303193,2.913671 -1.655085,4.262428 -2.022551,2.01786 -3.973336,2.111891 -6.092088,0.293645 z M 1.8401932,36.159801 C 0.82808688,35.544139 0,34.824842 0,34.561363 c 0,-1.07397 0.76670372,-1.093854 2.4599136,-0.0638 2.1696047,1.319869 3.299772,1.361952 5.5397966,0.206275 2.8346508,-1.462456 3.3245548,-3.562242 3.3245548,-14.249485 l 0,-9.521642 3.236284,-0.08494 c 1.914735,-0.05026 3.71668,0.229091 4.412714,0.68409 0.994458,0.650083 1.34264,0.647787 2.250964,-0.01486 1.487001,-1.084799 4.462656,-0.980991 5.867142,0.204683 1.577561,1.331793 2.250743,4.095526 0.997572,4.095526 -0.500889,0 -0.910703,-0.363149 -0.910703,-0.807 0,-2.386819 -4.520698,-3.58044 -5.642214,-1.489738 -0.322373,0.600964 -0.585181,2.571054 -0.584015,4.377976 l 0.0023,3.285314 1.104483,-1.807214 c 1.144454,-1.872604 4.768546,-3.365529 6.850981,-2.822223 0.767783,0.200313 1.082951,-0.188397 1.363814,-1.682058 0.515261,-2.740096 2.115087,-4.139159 4.733142,-4.139159 1.53216,0 2.526483,0.382663 3.39728,1.307434 1.079561,1.146476 1.231125,1.946243 1.231125,6.496352 0,5.741408 -0.445099,6.317806 -2.87392,3.721693 C 32.459374,17.660443 24.861877,16.9345 23.18982,20.96183 c -0.620082,1.493545 -0.567379,1.895215 0.422967,3.22363 1.467434,1.968364 3.115923,2.169399 5.538787,0.675459 2.465705,-1.520355 5.905512,-1.596309 8.335794,-0.184062 1.726762,1.003429 1.877344,1.325867 2.036175,4.360047 0.130603,2.494924 -0.0044,3.218658 -0.566213,3.034062 -0.424736,-0.13957 -0.809547,-1.327891 -0.907004,-2.800885 -0.172688,-2.610033 -0.789877,-3.274299 -3.794218,-4.083624 -1.819895,-0.490251 -2.41429,0.317072 -2.667785,3.623452 -0.131012,1.708823 -0.436824,3.544323 -0.679581,4.078889 -0.343445,0.756282 0.0037,1.183682 1.56448,1.926247 2.698525,1.283852 5.285715,0.541528 7.010105,-2.011358 1.215713,-1.799814 1.284233,-2.439327 1.284233,-11.985919 0,-8.587546 0.126089,-10.084665 0.849321,-10.084665 0.671408,0 0.84932,0.802002 0.84932,3.828609 0,4.351742 0.976484,6.339594 3.114173,6.339594 2.560946,0 3.114173,-1.78623 3.114173,-10.0549 l 0,-7.5439118 1.655085,-1.6512458 C 51.34737,0.6557974 52.601468,1.3e-6 53.507333,1.3e-6 c 1.79557,0 4.812819,2.7850302 4.812819,4.4424084 0,2.0085472 -1.004548,1.8423265 -2.074979,-0.3433421 -1.291941,-2.6379822 -3.547196,-3.1763335 -4.947943,-1.1811234 -0.716821,1.0210313 -0.90407,2.8282609 -0.90407,8.7256218 0,6.494584 -0.137857,7.607009 -1.087012,8.771484 -1.017345,1.248136 -1.026518,1.400654 -0.143129,2.379751 0.665808,0.737943 1.00371,2.360565 1.146965,5.507777 0.173156,3.804154 0.06909,4.461632 -0.70619,4.461632 -0.748291,0 -0.909273,-0.700087 -0.909273,-3.954301 0,-3.201101 -0.215701,-4.169502 -1.132426,-5.084102 -1.333832,-1.330737 -2.223867,-1.414868 -3.685747,-0.348393 -0.802201,0.585222 -1.16481,1.801174 -1.444291,4.843197 -0.420588,4.577897 -1.480323,6.470504 -4.568262,8.158571 -2.395885,1.309746 -5.653212,0.890093 -7.522379,-0.969135 -0.819371,-0.815013 -1.980299,-1.249201 -3.421392,-1.279603 -2.474295,-0.0522 -4.271314,-1.722812 -4.271314,-3.970866 0,-1.785045 1.014785,-1.731553 1.469878,0.07748 0.599553,2.383263 3.351394,3.285361 5.001131,1.639449 1.177583,-1.174852 1.24099,-5.425207 0.07427,-4.978533 -0.64019,0.245094 -0.685046,0.597842 -0.208673,1.640947 0.651323,1.426181 0.297181,3.095487 -0.6567,3.095487 -0.321196,0 -0.583987,-0.889718 -0.583987,-1.977152 0,-1.667846 -0.199301,-1.980281 -1.27398,-1.997167 -1.787744,-0.0281 -3.846615,-1.275774 -4.730422,-2.866663 -0.708327,-1.275011 -0.751145,-1.200888 -0.770091,1.333205 -0.01494,1.999637 -0.236455,2.683276 -0.869386,2.683276 -0.708831,0 -0.849319,-1.147218 -0.849319,-6.935558 0,-7.868971 -0.567126,-9.446546 -3.395973,-9.446546 -0.898212,0 -1.839247,0.317755 -2.091189,0.706124 -0.251943,0.388367 -0.585476,4.785021 -0.741185,9.770344 C 12.710698,32.905924 12.346776,34.073963 8.8872752,36.178463 6.5775936,37.58349 4.1703324,37.577114 1.8403591,36.159795 Z M 37.379829,13.286877 c -1.71642,-2.063363 -4.90936,-0.814083 -5.224428,2.044128 -0.136313,1.2366 0.318619,1.815174 2.666716,3.391471 l 2.831066,1.90052 0.169854,-3.299568 c 0.09342,-1.814762 -0.106029,-3.63121 -0.443208,-4.036551 z M 56.621327,35.87116 c 0,-0.58595 0.589972,-0.847351 1.912425,-0.847351 3.223304,0 3.435912,-0.709589 3.749713,-12.514982 0.173471,-6.526027 0.502379,-10.654204 0.849321,-10.659866 0.311416,-0.005 0.69361,1.610159 0.849319,3.589425 0.312895,3.977351 1.169876,5.462919 3.151396,5.462919 2.484702,0 3.07695,-1.848429 3.07695,-9.603302 0,-5.5808945 -0.192665,-7.3667413 -0.904067,-8.38006 C 67.905634,0.9227328 65.650379,1.4610841 64.358439,4.0990664 63.288013,6.2847349 62.283465,6.4509556 62.283465,4.4424084 62.283465,2.7850303 65.300708,0 67.096278,0 c 0.905868,0 2.159962,0.6557961 3.157726,1.6512471 l 1.655087,1.6512458 0,7.8758741 c 0,6.872888 -0.136536,8.04905 -1.072142,9.235721 -1.052047,1.334359 -1.052047,1.384605 0,2.680814 1.414927,1.743312 1.597576,9.669307 0.222822,9.669307 -0.674065,0 -0.84932,-0.815967 -0.84932,-3.954301 0,-3.201101 -0.215699,-4.169502 -1.132427,-5.084102 -1.432944,-1.429623 -2.530549,-1.429623 -3.963493,0 -0.929026,0.926871 -1.132426,1.883001 -1.132426,5.323209 0,3.687203 -0.176953,4.403217 -1.465864,5.931453 -1.176756,1.395247 -1.902641,1.738041 -3.680386,1.738041 -1.590992,0 -2.214528,-0.238584 -2.214528,-0.847349 z M 27.744451,21.748656 c 0,-3.723811 0.934149,-4.163807 1.22026,-0.57476 0.225449,2.828097 0.06287,3.68171 -0.70123,3.68171 -0.285467,0 -0.51903,-1.398127 -0.51903,-3.10695 z m 2.482302,0.597897 c -0.450897,-1.172295 -0.05037,-2.72533 0.773424,-2.998987 0.478378,-0.158911 0.707767,0.420941 0.707767,1.789115 0,2.022263 -0.889322,2.748683 -1.481191,1.209872 z m 21.660738,-4.096806 c -0.199146,-0.198683 -0.362083,-1.331684 -0.362083,-2.517781 0,-1.566206 0.426237,-2.619255 1.557087,-3.846883 1.361629,-1.47816 1.981814,-1.704793 4.940617,-1.805441 3.397631,-0.1155693 5.297192,-1.1555608 6.087676,-3.3329372 0.237345,-0.6537545 0.444291,-0.6756766 1.04467,-0.1106663 0.617483,0.5811067 0.545897,0.9771105 -0.408466,2.2595998 -1.616687,2.1725327 -3.406861,2.9492697 -6.819575,2.9589347 -3.38671,0.0095 -4.703369,1.223811 -4.703369,4.337433 0,1.792768 -0.629982,2.762676 -1.336557,2.057738 z"
     id="path3514"
     inkscape:connector-curvature="0" />
</svg>
