<?xml version="1.0" encoding="UTF-8" standalone="no"?>
<svg
   xmlns:dc="http://purl.org/dc/elements/1.1/"
   xmlns:cc="http://creativecommons.org/ns#"
   xmlns:rdf="http://www.w3.org/1999/02/22-rdf-syntax-ns#"
   xmlns:svg="http://www.w3.org/2000/svg"
   xmlns="http://www.w3.org/2000/svg"
   viewBox="0 0 127 78"
   height="78"
   width="127"
   version="1.1"
   id="svg3476">
  <metadata
     id="metadata3482">
    <rdf:RDF>
      <cc:Work
         rdf:about="">
        <dc:format>image/svg+xml</dc:format>
        <dc:type
           rdf:resource="http://purl.org/dc/dcmitype/StillImage" />
        <dc:title></dc:title>
      </cc:Work>
    </rdf:RDF>
  </metadata>
  <defs
     id="defs3480" />
  <path
     id="path3514"
     d="m 80.758543,76.037712 c -2.554681,-2.197444 -2.825445,-3.096668 -3.161649,-10.5 -0.314269,-6.920352 -0.134371,-8.09674 1.238193,-8.09674 1.316551,0 1.605885,1.221109 1.605885,6.777494 0,7.634477 1.727022,11.222506 5.401716,11.222506 5.022957,0 5.598284,-2.185857 5.598284,-21.269724 0,-11.403263 0.376266,-17.844787 1.067308,-18.271875 0.587019,-0.362798 1.311692,0.274893 1.610384,1.417092 0.444736,1.700675 0.891407,1.890302 2.466731,1.047214 2.34098,-1.252854 10.793925,-0.81405 11.120715,0.577293 0.12918,0.55 -2.1764,1.24209 -5.12351,1.537977 -6.868069,0.689547 -8.141628,2.366516 -8.141628,10.72054 0,6.182228 0.06847,6.351972 2.25,5.578142 3.562438,-1.263661 11.014358,-0.995644 11.492488,0.413341 0.29899,0.881061 -0.94201,1.25 -4.2046,1.25 -6.424021,0 -9.537888,3.111774 -9.537888,9.531469 0,3.77561 -0.535475,5.157852 -2.923077,7.545454 -3.572066,3.572066 -7.017386,3.73852 -10.759352,0.519817 z M 3.6909722,64.451932 c -1.7875,-1.08986 -3.24999998,-2.363177 -3.24999998,-2.829595 0,-1.901166 1.35408998,-1.936366 4.34449998,-0.112936 3.83178,2.336464 5.8277898,2.410959 9.7839398,0.365153 5.00633,-2.588877 5.87156,-6.305969 5.87156,-25.224786 l 0,-16.855441 5.71566,-0.150381 c 3.38165,-0.08897 6.5641,0.40554 7.79338,1.210992 1.75633,1.150794 2.37126,1.146727 3.97547,-0.0263 2.62622,-1.920339 7.88158,-1.736575 10.36207,0.362334 2.78616,2.357572 3.97508,7.25 1.76183,7.25 -0.88463,0 -1.60841,-0.642857 -1.60841,-1.428571 0,-4.225206 -7.98409,-6.338182 -9.96482,-2.63717 -0.56935,1.063842 -1.0335,4.551342 -1.03144,7.75 l 0.004,5.815741 1.95065,-3.199175 c 2.02124,-3.314928 8.42182,-5.957741 12.099646,-4.995968 1.355996,0.354601 1.91262,-0.333504 2.408658,-2.977618 0.910013,-4.850584 3.735496,-7.327239 8.359292,-7.327239 2.705976,0 4.462069,0.677398 6,2.314451 1.906634,2.029519 2.174314,3.445285 2.174314,11.5 0,10.163581 -0.786097,11.183933 -5.075686,6.588231 -7.597559,-8.139736 -21.015644,-9.42482 -23.968694,-2.295541 -1.09514,2.643909 -1.00206,3.354954 0.74701,5.706547 2.59166,3.484446 5.50309,3.840323 9.782155,1.195715 4.354729,-2.69137 10.429837,-2.825826 14.722005,-0.325831 3.049667,1.776294 3.315612,2.347082 3.596127,7.718259 0.23066,4.416577 -0.0079,5.697748 -1,5.370972 -0.750134,-0.247071 -1.429756,-2.350665 -1.601877,-4.958195 -0.304986,-4.620344 -1.395016,-5.796243 -6.70104,-7.228929 -3.214151,-0.867857 -4.263924,0.561286 -4.711625,6.414321 -0.231383,3.025 -0.771483,6.274247 -1.200223,7.220549 -0.606563,1.338789 0.0065,2.095383 2.763059,3.409889 4.765915,2.272707 9.335201,0.958628 12.380678,-3.560554 2.147095,-3.186075 2.268111,-4.318156 2.268111,-21.217767 0,-15.201882 0.222682,-17.852117 1.5,-17.852117 1.185786,0 1.5,1.419722 1.5,6.777494 0,7.703561 1.724588,11.222506 5.5,11.222506 4.522937,0 5.5,-3.162029 5.5,-17.799429 l 0,-13.3544167 2.923077,-2.923077 c 1.76217,-1.76217 3.977058,-2.92307697 5.576923,-2.92307697 3.171189,0 8.500008,4.93012797 8.500008,7.86405997 0,3.5555787 -1.77415,3.2613297 -3.664656,-0.607793 -2.281724,-4.669821 -6.264771,-5.622823 -8.738659,-2.090853 -1.26599,1.807454 -1.596693,5.0066547 -1.596693,15.4463077 0,11.496872 -0.243473,13.466111 -1.919792,15.527494 -1.796753,2.209482 -1.812954,2.479473 -0.252786,4.212693 1.175896,1.306326 1.772672,4.178729 2.025677,9.75 0.305816,6.734209 0.122024,7.898091 -1.247214,7.898091 -1.321572,0 -1.605885,-1.239311 -1.605885,-7 0,-5.666667 -0.380952,-7.380952 -2,-9 -2.355705,-2.355705 -3.927612,-2.504635 -6.509467,-0.616736 -1.416782,1.035976 -2.057193,3.188483 -2.55079,8.573547 -0.742806,8.103905 -2.614425,11.454244 -8.068093,14.442501 -4.231419,2.318544 -9.984244,1.575664 -13.285416,-1.715585 -1.447106,-1.442757 -3.497444,-2.211367 -6.042584,-2.265185 -4.3699,-0.0924 -7.54365,-3.049764 -7.54365,-7.029326 0,-3.15993 1.79223,-3.065236 2.59598,0.137162 1.05888,4.21891 5.91896,5.815825 8.832591,2.902193 2.079753,-2.079752 2.191737,-9.603836 0.13117,-8.813122 -1.130651,0.433872 -1.209871,1.058315 -0.36854,2.904845 1.150312,2.524661 0.524857,5.479706 -1.159811,5.479706 -0.56727,0 -1.03139,-1.575 -1.03139,-3.5 0,-2.952464 -0.35199,-3.505543 -2.25,-3.535435 -3.15737,-0.04973 -6.79358,-2.258407 -8.35449,-5.074636 -1.25099,-2.257056 -1.32661,-2.125843 -1.36007,2.360071 -0.0264,3.539806 -0.41761,4.75 -1.53544,4.75 -1.25188,0 -1.5,-2.030833 -1.5,-12.277494 0,-13.929844 -1.00161,-16.722506 -5.99769,-16.722506 -1.58635,0 -3.24833,0.5625 -3.69329,1.25 -0.44496,0.6875 -1.03402,8.470566 -1.30902,17.295703 -0.55171,17.705172 -1.19444,19.772863 -7.30433,23.4983 -4.07915,2.487213 -8.3306598,2.475925 -12.4456698,-0.03304 z M 66.458197,23.961726 c -3.031403,-3.652617 -8.670515,-1.44111 -9.226962,3.618565 -0.240745,2.18906 0.562719,3.213264 4.709737,6.003665 l 5,3.364347 0.299984,-5.840976 c 0.164991,-3.212536 -0.187251,-6.428057 -0.782759,-7.145601 z m 33.982773,39.979246 c 0,-1.037261 1.04196,-1.5 3.37757,-1.5 5.69274,0 6.06823,-1.256133 6.62244,-22.154326 0.30637,-11.552532 0.88726,-18.860331 1.5,-18.870354 0.55,-0.009 1.225,2.850342 1.5,6.354087 0.55261,7.040802 2.06614,9.670593 5.56574,9.670593 4.38828,0 5.43426,-3.272134 5.43426,-17 0,-9.879436 -0.34027,-13.0407847 -1.59669,-14.8345857 -2.47389,-3.53197 -6.45694,-2.578968 -8.73866,2.090853 -1.8905,3.8691227 -3.66465,4.1633717 -3.66465,0.607793 0,-2.933932 5.32881,-7.86405997 8.5,-7.86405997 1.59987,0 3.81475,1.16090697 5.57692,2.92307697 l 2.92308,2.923077 0,13.9420637 c 0,12.166554 -0.24114,14.248624 -1.89353,16.349297 -1.85804,2.362115 -1.85804,2.451061 0,4.745643 2.49893,3.086052 2.82151,17.116842 0.39353,17.116842 -1.19048,0 -1.5,-1.444444 -1.5,-7 0,-5.666667 -0.38095,-7.380952 -2,-9 -2.53075,-2.530753 -4.46925,-2.530753 -7,0 -1.64077,1.64077 -2,3.333333 -2,9.423275 0,6.527175 -0.31252,7.794681 -2.58889,10.5 -2.07829,2.469902 -3.36029,3.076725 -6.5,3.076725 -2.80988,0 -3.91112,-0.422349 -3.91112,-1.5 z m -50.999998,-25 c 0,-6.59198 1.64982,-7.370872 2.155124,-1.017453 0.398172,5.006365 0.111033,6.517453 -1.238454,6.517453 -0.50417,0 -0.91667,-2.475 -0.91667,-5.5 z m 4.384042,1.058413 c -0.796339,-2.075225 -0.08897,-4.824447 1.365958,-5.30888 0.844874,-0.281309 1.25,0.745161 1.25,3.167134 0,3.579859 -1.570647,4.865785 -2.615958,2.141746 z m 38.255438,-7.252266 c -0.351714,-0.351714 -0.63948,-2.357381 -0.63948,-4.457037 0,-2.772537 0.752786,-4.636668 2.75,-6.809847 2.404798,-2.616674 3.500119,-3.017866 8.725718,-3.196035 6.00062,-0.204593 9.35547,-2.045603 10.75156,-5.900046 0.41918,-1.157294 0.78467,-1.196101 1.84501,-0.195901 1.09055,1.02869 0.96412,1.729705 -0.7214,4 -2.85526,3.845869 -6.01692,5.220868 -12.04418,5.237977 -5.981331,0.01698 -8.306708,2.166421 -8.306708,7.678231 0,3.173601 -1.112623,4.890555 -2.36052,3.642658 z"
     style="fill:#101010" />
</svg>
