<?xml version="1.0" encoding="UTF-8" standalone="no"?>
<svg
   xmlns:dc="http://purl.org/dc/elements/1.1/"
   xmlns:cc="http://creativecommons.org/ns#"
   xmlns:rdf="http://www.w3.org/1999/02/22-rdf-syntax-ns#"
   xmlns:svg="http://www.w3.org/2000/svg"
   xmlns="http://www.w3.org/2000/svg"
   viewBox="0 0 961 309.20316"
   height="309.20316"
   width="961"
   version="1.1"
   id="svg3372">
  <metadata
     id="metadata3378">
    <rdf:RDF>
      <cc:Work
         rdf:about="">
        <dc:format>image/svg+xml</dc:format>
        <dc:type
           rdf:resource="http://purl.org/dc/dcmitype/StillImage" />
        <dc:title></dc:title>
      </cc:Work>
    </rdf:RDF>
  </metadata>
  <defs
     id="defs3376" />
  <path
     id="path3382"
     d="M 43.227479,307.08672 C 35.12946,303.07827 31,295.63046 31,285.03347 c 0,-7.13882 3.841229,-15.0351 8.962706,-18.42434 l 3.716887,-2.45972 0.123786,-8.47768 c 0.326702,-22.37475 10.519676,-44.77399 30.002101,-65.93015 4.07137,-4.42114 8.49351,-9.89983 9.82697,-12.17486 2.06571,-3.52433 5.29383,-15.05682 5.35019,-19.11357 0.0446,-3.21206 -5.97474,-0.16628 -26.185867,13.25 -18.147695,12.04656 -22.462983,14.5 -25.503644,14.5 -3.396382,0 -4.870885,-1.20339 -20.476531,-16.71158 C 0.9158813,153.69016 0,152.57207 0,148.96222 0,145.66983 5.1121203,136.99471 37.147598,85.92379 57.578777,53.35244 75.24128,25.74969 76.3976,24.58436 77.55392,23.41903 90.2,17.41082 104.5,11.23278 L 130.5,0 141,0.544 c 17.02697,0.88218 37.52878,7.0534201 52.14902,15.69737 22.65819,13.39624 37.65808,33.07579 44.55998,58.46178 l 2.71878,10 0.34008,55.1315 0.34007,55.13149 -2.46499,2.86851 -2.46499,2.8685 -15.23135,0.32424 -15.23136,0.32425 0.67747,9.63778 c 1.26513,17.99803 4.68689,29.72302 13.02587,44.63452 l 3.6793,6.57921 5.20106,0.022 c 23.51176,0.0993 31.51848,33.05127 10.77421,44.34171 l -4.84381,2.63629 -93.36467,-7.9e-4 c -93.040584,-7.8e-4 -93.379501,-0.008 -97.637191,-2.11564 z M 231.36514,291.13057 c 3.64388,-2.86628 3.64388,-7.98856 0,-10.85484 -2.61998,-2.06088 -3.12847,-2.07258 -90.06574,-2.07258 -87.879119,0 -90.324023,0.0898 -92.534087,3.3997 -1.461473,2.18876 -0.765527,7.60009 1.234687,9.6003 1.969822,1.96982 3.333333,2 90.36514,2 87.88244,0 88.37954,-0.0113 91,-2.07258 z M 78.31448,250.95315 c 1.49613,-20.18374 11.3534,-41.19906 27.67403,-59 5.81762,-6.34529 6.44882,-6.75 10.5275,-6.75 3.49624,0 4.74132,0.51168 6.41141,2.63486 3.30331,4.19947 2.68644,7.78452 -2.26406,13.15798 C 105.5173,217.43613 97.52991,232.96874 95.04882,250.80712 94.47197,254.95453 94,258.54031 94,258.77551 c 0,0.2352 24.27072,0.42764 53.93493,0.42764 l 53.93493,0 -3.43384,-7.43211 c -1.88862,-4.08766 -4.34123,-11.17516 -5.45026,-15.75 -2.31363,-9.54397 -4.08857,-29.28552 -3.43691,-38.22657 3.83817,-52.66122 4.184,-90.1555 0.94626,-102.59132 -2.27647,-8.7437 -8.49178,-21.44246 -13.32548,-27.2259 C 161.09322,48.74216 133.78854,38.218 99.93187,38.20717 l -12.56813,-0.004 -28.431871,45.2206 c -27.078181,43.06758 -28.415844,45.4224 -28.095281,49.45887 0.275375,3.46749 -0.125546,4.7004 -2.204546,6.7794 -1.397623,1.39762 -3.451214,2.54113 -4.563534,2.54113 -1.112321,0 -2.78249,1.16004 -3.711487,2.57787 l -1.689086,2.57787 10.024163,10.02416 10.024164,10.02417 20.38804,-13.60204 C 78.06956,141.15239 79.82065,140.20317 84.19695,140.20317 c 15.47068,0 27.62249,-6.812 33.00183,-18.5 2.09044,-4.54202 2.30122,-6.43269 2.30122,-20.6415 0,-13.9769 0.20273,-15.86589 1.90499,-17.75 2.67753,-2.96358 8.54221,-2.85806 11.42026,0.20548 3.10691,3.30715 4.50334,12.26953 3.84633,24.68602 -0.83711,15.82025 -4.14101,24.38628 -13.03201,33.78812 -2.9416,3.1106 -7.70551,6.72084 -11.13957,8.44189 -3.3,1.65387 -6.13432,3.12551 -6.29848,3.27032 -0.16417,0.14482 -0.71175,4.25398 -1.21686,9.13148 -1.65996,16.02906 -6.01927,24.95428 -19.05525,39.0136 -15.23688,16.433 -23.423635,32.92311 -25.512811,51.38898 l -0.674932,5.96561 8.980635,0 8.980638,0 0.61153,-8.25 z M 70.92308,99.280071 C 66.521586,94.87858 67.153376,90.96418 73.31616,84.45315 c 2.37072,-2.50468 3.90853,-3.25 6.70569,-3.25 7.70315,0 10.55251,8.31967 5.22815,15.26533 -4.91551,6.41231 -9.77296,7.36556 -14.32692,2.811591 z m 153.59679,59.173079 c 0.96448,-33.30548 0.10407,-64.38638 -2.05545,-74.25 C 215.06294,50.39687 192.37902,28.52702 155.5,19.64191 c -14.28593,-3.44186 -20.55516,-3.43329 -28,0.0383 l -6,2.79782 9,1.75234 c 42.58891,8.29224 68.83856,32.28031 77.11694,70.4728 2.88582,13.31378 2.77694,47.13528 -0.26479,82.25001 l -0.62801,7.25 8.52502,0 8.52503,0 0.74568,-25.75 z m 121.92587,113.46921 c -0.27031,-0.70444 -0.36869,-9.81113 -0.21861,-20.23708 0.24374,-16.9326 0.45475,-18.99123 1.97653,-19.28361 1.23663,-0.23759 4.66337,4.11563 12.5,15.87959 l 10.79634,16.20691 0.24324,-13.89251 c 0.27535,-15.72581 0.67781,-18.39251 2.77581,-18.39251 1.25977,0 1.48095,3.06166 1.48095,20.5 0,18.87284 -0.1389,20.49673 -1.75,20.45879 -1.12771,-0.0266 -5.66152,-5.87357 -12.75,-16.443 l -11,-16.40178 -0.27418,16.443 c -0.23116,13.86299 -0.51067,16.44299 -1.78138,16.44299 -0.82897,0 -1.72838,-0.57636 -1.9987,-1.28079 z m 43.74408,-0.74484 C 385.45208,268.289 384,263.95505 384,252.70315 c 0,-6.06166 0.52729,-10.82621 1.43982,-13.01022 3.92903,-9.40349 19.14413,-10.14024 24.60066,-1.19123 1.61714,2.65219 1.95269,5.05431 1.95578,14.00111 0.004,12.23059 -1.12334,15.5876 -6.29481,18.74082 -4.24347,2.5874 -11.20803,2.55772 -15.51163,-0.0661 z M 405.25,266.18986 c 2.63266,-2.88947 2.75,-3.46495 2.75,-13.48671 0,-10.13665 -0.0918,-10.57123 -2.89766,-13.7115 -2.39795,-2.68376 -3.62279,-3.24305 -7.10234,-3.24305 -3.47955,0 -4.70439,0.55929 -7.10234,3.24305 -2.80132,3.13523 -2.89766,3.58714 -2.89766,13.59242 0,9.05801 0.26678,10.68852 2.13812,13.06754 4.2474,5.3997 10.48024,5.62169 15.11188,0.53825 z m 19.48734,6.31866 c -1.11461,-1.99867 -9.93042,-39.44562 -9.40908,-39.96696 2.10622,-2.10623 3.7899,1.71164 7.3015,16.55672 2.08413,8.81051 3.93054,15.8779 4.10315,15.70529 0.1726,-0.1726 2.24017,-7.46581 4.59459,-16.20712 3.63277,-13.48746 4.57008,-15.8933 6.19202,-15.8933 1.98792,0 2.11152,0.35313 8.57537,24.5 l 2.27535,8.5 4.12101,-16.49711 c 3.1565,-12.63605 4.51744,-16.57346 5.81487,-16.82333 0.93164,-0.17941 1.68138,0.26929 1.66611,0.99712 -0.0153,0.72782 -2.18089,9.87332 -4.81248,20.32332 -4.11989,16.36005 -5.04993,19 -6.69359,19 -1.61236,0 -2.54273,-2.33023 -5.98897,-15 -2.24404,-8.25 -4.29762,-15.60959 -4.56352,-16.35465 -0.26589,-0.74506 -2.49274,6.00033 -4.94855,14.98975 -3.31161,12.12201 -4.89313,16.42594 -6.12188,16.66002 -0.91122,0.17359 -1.85888,-0.0468 -2.1059,-0.48975 z m 52.7084,-0.58616 c -0.27031,-0.70444 -0.36869,-9.81113 -0.21861,-20.23708 0.24662,-17.13238 0.44125,-18.98864 2.02287,-19.29253 1.62085,-0.31143 1.75,1.18201 1.75,20.23708 0,17.80812 -0.20583,20.57332 -1.53138,20.57332 -0.84227,0 -1.75256,-0.57636 -2.02288,-1.28079 z m 15.05387,-0.10512 c -3.77743,-1.64629 -6.14013,-4.37357 -4.8803,-5.6334 0.57939,-0.57939 2.82444,0.0343 5.90762,1.61484 6.27458,3.21659 11.86156,2.81671 15.22151,-1.08946 2.77857,-3.23028 2.84214,-5.48555 0.24759,-8.78398 -1.3424,-1.7066 -3.40569,-2.76457 -6.25,-3.20476 C 492.32021,253.10695 488,249.85343 488,243.61534 c 0,-7.50303 4.29864,-11.41219 12.54921,-11.41219 7.0668,0 13.45169,3.66577 10.87422,6.24323 -0.31711,0.31712 -2.6219,-0.32818 -5.12175,-1.43398 C 498.46454,233.54566 492,236.35867 492,243.23569 c 0,4.76033 1.44843,5.89065 9.74946,7.60817 3.7128,0.7682 7.86899,2.21947 9.23598,3.22505 5.787,4.25702 4.33818,14.8476 -2.41733,17.67023 -4.30026,1.79676 -12.03868,1.83437 -16.0685,0.0781 z M 540,265.18649 c 0,-7.72119 -0.20271,-8.42084 -5.5,-18.98334 -5.62696,-11.21984 -6.46611,-14 -4.22569,-14 0.70088,0 3.45324,4.38637 6.11637,9.74748 l 4.84205,9.74748 4.89337,-9.74748 c 2.90186,-5.78045 5.49987,-9.74748 6.38363,-9.74748 2.46927,0 1.74728,2.52085 -4.00973,14 -5.29729,10.5625 -5.5,11.26215 -5.5,18.98334 0,6.45925 -0.29141,8.01666 -1.5,8.01666 -1.20859,0 -1.5,-1.55741 -1.5,-8.01666 z m 24.03002,6.73735 c -1.3585,-0.68741 -3.496,-2.77232 -4.75,-4.63314 C 557.24364,264.26892 557,262.71013 557,252.70315 c 0,-10.00698 0.24364,-11.56577 2.28002,-14.58755 2.89326,-4.29332 6.04853,-5.8801 11.71998,-5.89397 5.71932,-0.014 10.66078,2.92539 12.56018,7.4713 1.93693,4.63575 1.93693,21.38469 0,26.02044 -0.79191,1.89529 -2.92941,4.35416 -4.75,5.46415 -3.78515,2.30773 -10.97674,2.67087 -14.78016,0.74632 z M 578,266.6562 c 2.37427,-2.37285 2.5,-3.07166 2.5,-13.89521 0,-10.62102 -0.16169,-11.56882 -2.37558,-13.9254 -1.30657,-1.39078 -3.64798,-2.80816 -5.20313,-3.14973 -3.68331,-0.80899 -9.29757,1.85296 -10.78273,5.11253 -1.47309,3.23307 -1.47718,20.56747 -0.006,23.79719 2.61402,5.73715 11.08727,6.83755 15.86706,2.06062 z m 20.29855,4.64631 C 592.71615,267.79605 592,265.11012 592,247.67949 c 0,-14.33991 0.14372,-15.59549 1.75,-15.2882 1.55187,0.29688 1.80661,2.10797 2.25,15.99658 0.47134,14.76404 0.63617,15.80653 2.87558,18.18667 1.30657,1.38867 3.62246,2.79872 5.14641,3.13344 3.01678,0.6626 9.19492,-1.46522 10.60593,-3.6528 0.47965,-0.74361 1.09708,-8.54683 1.37208,-17.34048 0.44406,-14.19979 0.69578,-16.02592 2.25,-16.32333 1.60979,-0.30804 1.75,0.99413 1.75,16.25314 l 0,16.58801 -3.35508,3.66102 c -3.00965,3.28411 -3.96198,3.70009 -9.25,4.04046 -4.63393,0.29827 -6.57974,-0.0507 -9.09637,-1.63149 z m 30.93074,-18.34936 0.27071,-20.25 9.5,-0.26545 c 7.99385,-0.22336 10.00553,0.0458 12.68863,1.69798 3.58087,2.20495 5.58061,7.47126 4.63409,12.20385 -0.52889,2.64446 -4.6335,7.13388 -7.3504,8.03951 -0.6404,0.21347 0.80632,3.70743 3.45561,8.34565 4.98607,8.7293 5.46113,10.48956 2.82207,10.45662 -1.16089,-0.0145 -3.53502,-3.21252 -7.05254,-9.5 l -5.30253,-9.47816 -4.94747,0 -4.94746,0 0,9.5 c 0,8.86578 -0.1349,9.5 -2.02071,9.5 -1.96999,0 -2.01391,-0.50819 -1.75,-20.25 z m 20.65691,-3.5 c 3.21578,-2.66993 3.70152,-7.23312 1.11938,-10.51578 -2.02011,-2.56815 -2.63222,-2.73422 -10.07816,-2.73422 l -7.92742,0 0,7.5 0,7.5 7.38922,0 c 5.56772,0 7.90879,-0.43139 9.49698,-1.75 z m 33.78047,23.08333 C 683.3,272.16982 683,263.86727 683,254.08639 l 0,-17.78343 -5.75,-0.29991 c -4.31115,-0.22485 -5.75,-0.67525 -5.75,-1.7999 0,-1.24758 2.32709,-1.5469 13.82886,-1.77873 12.7985,-0.25797 13.80363,-0.14621 13.49028,1.5 -0.26929,1.41473 -1.51328,1.8401 -6.07886,2.07863 L 687,236.30296 l 0,18.45009 c 0,14.70842 -0.2704,18.4501 -1.33333,18.4501 -0.73334,0 -1.63334,-0.3 -2,-0.66667 z m 25.8887,-1.28759 c -5.00093,-3.29657 -5.91498,-6.27671 -6.37016,-20.76926 -0.45093,-14.35722 0.0496,-18.27648 2.33384,-18.27648 1.23757,0 1.48095,2.30602 1.48095,14.03212 0,16.05959 1.03147,19.89855 6.0427,22.48996 4.09901,2.11968 8.8488,1.28581 12.04737,-2.11503 2.30655,-2.45241 2.42364,-3.2479 2.72957,-18.5446 0.28659,-14.33014 0.49334,-15.94894 2,-15.65981 1.46769,0.28165 1.71536,2.18365 1.95691,15.02848 0.31605,16.80599 -0.60595,20.47509 -5.96637,23.74325 -4.39004,2.67653 -12.25041,2.71104 -16.25481,0.0714 z M 741,252.61213 l 0,-20.59103 10.58393,0.34103 c 10.51632,0.33884 10.60255,0.36188 13.5,3.6068 4.91522,5.50467 3.56144,14.14087 -2.71035,17.29012 l -3.0986,1.55589 4.34576,7.44411 c 4.53058,7.76071 5.38338,10.9441 2.9318,10.9441 -0.79611,0 -3.83361,-4.26517 -6.75,-9.47816 l -5.30254,-9.47816 -5.25,-0.0218 -5.25,-0.0218 0,9.5 c 0,7.77778 -0.27193,9.5 -1.5,9.5 -1.28477,0 -1.5,-2.95456 -1.5,-20.59102 z m 20.36514,-3.48156 c 3.30154,-2.59699 3.61252,-7.94976 0.63486,-10.92742 -1.66667,-1.66667 -3.33333,-2 -10,-2 l -8,0 0,7.5 0,7.5 7.36514,0 c 5.93692,0 7.87609,-0.40191 10,-2.07258 z M 775,252.70315 c 0,-19.09451 0.12374,-20.5 1.80486,-20.5 1.21591,0 5.37638,5.29424 12.75,16.22452 L 800.5,264.65218 801,248.68963 c 0.444,-14.1749 0.69598,-16.0001 2.25,-16.29784 1.62082,-0.31054 1.75,1.18333 1.75,20.23804 0,19.08065 -0.12951,20.57332 -1.785,20.57332 -1.19026,0 -5.43843,-5.41433 -12.75,-16.25 l -10.965,-16.25 -0.27477,16.25 c -0.26078,15.42266 -0.37534,16.25 -2.25,16.25 -1.90274,0 -1.97523,-0.75236 -1.97523,-20.5 z m 51.5,-47.61295 c -7.1215,-1.03151 -17.60338,-5.93172 -20.46199,-9.56586 -2.70281,-3.43607 -2.72194,-9.63726 -0.038,-12.32119 3.06827,-3.06827 7.95537,-2.53636 15.67318,1.70588 5.86333,3.2229 7.5947,3.70296 13.28442,3.68343 13.78776,-0.0473 21.0424,-8.64828 21.0424,-24.94741 l 0,-7.30665 -4.92584,3.31484 c -2.70921,1.82317 -7.26145,3.87515 -10.11609,4.55997 -10.31218,2.47385 -23.67685,-0.53138 -30.30132,-6.81367 -6.98067,-6.62011 -10.66708,-20.09989 -10.63939,-38.90423 0.0471,-32.01825 10.03003,-45.8069 32.98264,-45.55662 8.29095,0.0904 14.6064,1.96413 19.6905,5.84196 3.07294,2.34385 3.37685,2.39979 3.96768,0.73038 1.44666,-4.08756 4.58126,-6.30788 8.90535,-6.30788 5.34066,0 8.26047,2.31438 9.46197,7.5 1.29229,5.57749 1.21563,85.42063 -0.0897,93.46637 -2.75929,17.00706 -14.7195,28.4221 -32.46679,30.98688 -7.82174,1.13037 -7.70452,1.13086 -15.96897,-0.0662 z m 21.81295,-61.17658 c 5.54885,-4.23232 7.18778,-9.87034 7.18314,-24.71047 -0.004,-14.06983 -1.19431,-19.394939 -5.32098,-23.81255 -5.78341,-6.19116 -17.23178,-6.71063 -23.65243,-1.07323 -5.01161,4.400261 -6.8799,11.02242 -6.8799,24.38578 0,20.7367 5.65948,28.91254 19.50945,28.18389 4.28946,-0.22567 6.49814,-0.94257 9.16072,-2.97342 z m 45.00242,59.34372 C 890.47241,202.03228 889,199.17381 889,194.87968 c 0,-5.1004 2.56886,-7.58942 8.84671,-8.57177 7.22403,-1.13041 10.18949,-4.34695 13.58095,-14.73083 l 2.65404,-8.12608 -13.15998,-38.37392 c -7.238,-21.10566 -13.38656,-40.25678 -13.66348,-42.55804 -0.43803,-3.6401 -0.13696,-4.52379 2.31562,-6.79676 2.32395,-2.15377 3.61308,-2.56054 7.33944,-2.3159 3.75488,0.24651 4.86462,0.81041 6.55352,3.33006 1.11825,1.66832 6.06269,15.72881 10.98765,31.24554 4.92495,15.51673 9.25176,27.87675 9.61512,27.4667 0.36336,-0.41004 4.76029,-13.38329 9.77097,-28.82944 5.01067,-15.44616 10.05403,-29.28366 11.20746,-30.75001 2.43328,-3.09342 7.27651,-3.58387 11.88046,-1.20307 3.05619,1.58042 4.07152,3.34848 4.07152,7.09002 0,3.8172 -35.74307,106.48118 -38.79172,111.42053 -4.17916,6.771 -10.51722,10.24615 -19.46959,10.67514 -3.98128,0.19078 -8.22177,-0.0768 -9.42332,-0.59451 z M 359.5,166.29267 c -18.57402,-4.67867 -28.33914,-12.98683 -25.47272,-21.67217 2.39018,-7.24234 8.41927,-8.25342 17.29632,-2.90061 11.06096,6.66969 22.80154,9.31201 33.62851,7.56838 12.55317,-2.02163 19.35734,-8.92313 19.26196,-19.53751 -0.0775,-8.62106 -3.89799,-13.74429 -12.21407,-16.37878 -1.925,-0.60983 -9.56532,-2.02799 -16.97849,-3.15147 -20.56597,-3.11682 -30.12789,-8.42497 -35.73142,-19.83576 C 336.75007,85.21239 336.5,83.71722 336.5,73.70315 c 0,-9.75998 0.29246,-11.62001 2.59433,-16.5 9.98839,-21.1755 40.84853,-28.40188 67.94777,-15.91103 10.24923,4.72418 13.1401,8.79889 10.95018,15.4344 -2.17793,6.59922 -8.45844,7.27634 -18.76616,2.02325 -19.65128,-10.01484 -39.91643,-4.94289 -42.76579,10.70338 -1.59932,8.78211 2.92206,16.41769 11.3363,19.14442 2.58685,0.8383 10.42513,2.43835 17.41838,3.55566 23.07441,3.6866 31.36172,8.67707 37.44705,22.54992 1.29597,2.95446 1.76549,6.74913 1.79627,14.5175 0.0393,9.91339 -0.14742,10.90181 -3.25033,17.20803 -5.10989,10.38512 -14.29199,17.16719 -27.43884,20.26683 -8.56493,2.01935 -25.44074,1.82097 -34.26916,-0.40284 z m 142.86408,0.74089 C 498.18939,165.01214 498,162.95414 498,119.61064 l 0,-41.4984 2.45455,-2.45455 c 1.88606,-1.88606 3.50729,-2.45454 7,-2.45454 5.01666,0 8.03791,2.12962 9.1162,6.42585 l 0.62161,2.47672 2.64325,-2.45097 c 7.97549,-7.39529 23.62633,-9.12248 34.76542,-3.83664 4.88242,2.31686 7.39897,5.91037 7.39897,10.56535 0,7.9557 -8.13872,11.320641 -16.78984,6.94172 -7.97199,-4.03516 -15.21301,-3.51485 -21.20061,1.52338 -6.35776,5.3497 -6.4603,5.91578 -7.00955,38.69305 l -0.5,29.83846 -2.80576,2.41154 c -2.98822,2.56836 -7.55663,3.06912 -11.33016,1.24195 z m 77.23713,-0.82201 c -7.14834,-2.28314 -13.80587,-8.35898 -16.29182,-14.86833 -2.06171,-5.39851 -2.25968,-16.15889 -0.39659,-21.55593 1.89743,-5.4965 8.19989,-11.94192 14.36015,-14.68588 4.69848,-2.09284 7.03509,-2.36716 23.10692,-2.71271 l 17.87987,-0.38442 -0.52034,-5.73842 c -0.93678,-10.33105 -5.29949,-15.26439 -14.63412,-16.54823 -6.3033,-0.86693 -13.36046,0.90324 -20.04164,5.0271 -6.43948,3.974671 -9.7087,4.312051 -13.42878,1.38584 -3.39393,-2.66967 -3.69318,-9.31227 -0.59685,-13.24861 3.30812,-4.20559 13.41207,-8.55735 22.49104,-9.68686 21.31901,-2.65229 38.43521,4.27836 43.41123,17.57798 1.93051,5.15974 2.05772,7.588641 2.02792,38.71758 -0.0335,34.92447 -0.0553,35.10068 -4.65246,37.54915 C 627.27757,169.72315 619,166.67139 619,162.13057 c 0,-2.47246 -0.27298,-2.43691 -4.92439,0.64124 -8.51493,5.63491 -23.05826,7.086 -34.4744,3.43974 z m 30.17607,-17.14609 c 5.43935,-2.62874 7.24726,-6.14746 7.95298,-15.47881 l 0.55842,-7.3835 -11.70152,0 c -18.05739,0 -23.73201,2.27451 -25.52663,10.23161 -1.55118,6.87774 2.55661,12.92801 10.06227,14.82048 4.89065,1.23313 13.71532,0.19723 18.65448,-2.18978 z m 126.99867,17.71738 C 718.28721,161.46316 709,146.05588 709,120.70315 c 0,-16.75284 3.31616,-27.40228 11.22882,-36.06 6.19252,-6.77559 12.50872,-10.1266 21.48491,-11.39863 17.82529,-2.52605 33.65804,4.89175 40.88603,19.15549 6.57048,12.96623 7.03056,30.81234 0.85544,33.18196 -0.89033,0.34165 -13.73197,0.62118 -28.53699,0.62118 -30.46818,0 -28.2472,-0.73376 -25.49177,8.42183 3.2787,10.89429 10.89728,16.61492 22.0199,16.53428 7.0709,-0.0513 12.1744,-1.66672 17.07564,-5.40508 1.93486,-1.47578 5.06307,-2.93399 6.95158,-3.24045 2.88945,-0.4689 3.91649,-0.0744 6.48005,2.48918 6.31497,6.31498 2.03042,13.64337 -11.65112,19.92836 -5.04339,2.31681 -7.30696,2.70119 -17.30249,2.93816 -7.48924,0.17755 -13.14757,-0.20141 -16.22405,-1.08659 z m 31.16599,-58.82969 c -1.65703,-8.804649 -5.18395,-14.04774 -11.32585,-16.83689 -12.92285,-5.8685 -25.24118,1.74927 -28.03467,17.33689 l -0.67205,3.75 20.41621,0 20.41621,0 -0.79985,-4.25 z m -308.67548,57.6417 c -5.13247,-1.87596 -11.45223,-8.73069 -13.09044,-14.19854 C 445.39139,148.77746 445,137.77502 445,118.33713 l 0,-29.13398 -3.4349,0 c -3.97512,0 -8.68824,-1.59647 -9.77944,-3.31256 -0.41527,-0.6531 -0.76193,-2.8052 -0.77035,-4.78246 -0.0214,-5.01458 2.39153,-6.90498 8.81343,-6.90498 l 5.17126,0 0,-10.94424 c 0,-10.12744 0.18012,-11.15364 2.41342,-13.75 2.004,-2.32979 3.20617,-2.80576 7.08658,-2.80576 3.88041,0 5.08258,0.47597 7.08658,2.80576 2.2333,2.59636 2.41342,3.62256 2.41342,13.75 l 0,10.94424 8,0 c 9.32416,0 12,1.63783 12,7.34501 0,5.36008 -2.79003,7.08521 -12.14593,7.51008 l -7.94211,0.36067 0.29402,27.81321 0.29402,27.8132 2.42431,2.57892 c 1.38324,1.47144 3.5304,2.5813 5,2.58449 4.45154,0.01 10.01146,2.00589 11.06392,3.97243 1.59414,2.97868 1.18624,7.58496 -0.8998,10.16111 -1.70002,2.09944 -2.83439,2.385 -10.25,2.58034 -5.53202,0.14571 -9.76328,-0.30116 -12.57197,-1.32776 z m 217.35831,0.18786 c -4.9409,-1.82323 -10.34752,-6.95565 -12.72492,-12.07956 -1.67711,-3.61461 -1.85804,-6.91449 -1.87789,-34.25 l -0.022,-30.25 -4.04966,0 c -2.22731,0 -5.37731,-0.68656 -7,-1.52568 -2.57627,-1.33224 -2.95034,-2.07333 -2.95034,-5.84502 0,-5.79925 2.11776,-7.6293 8.82874,-7.6293 l 5.17126,0 0,-10.94424 c 0,-10.12744 0.18012,-11.15364 2.41342,-13.75 3.21684,-3.7398 10.32253,-4.01285 13.8088,-0.53064 2.05769,2.0553 2.31025,3.38391 2.61383,13.75 l 0.33606,11.47488 7.91394,0 c 6.58062,0 8.25091,0.33695 9.91395,2 2.5236,2.52359 2.56765,7.07742 0.098,10.12735 -1.65596,2.04502 -2.94973,2.3965 -10,2.71667 l -8.098,0.36775 0,26.24489 c 0,15.71642 0.42036,27.45073 1.04784,29.25074 1.23287,3.53659 3.68673,4.92091 10.27424,5.79611 2.71342,0.3605 5.66515,1.48372 6.75,2.56857 2.49282,2.49282 2.50095,7.99869 0.0163,11.06704 -1.6947,2.09287 -2.85758,2.38961 -10.25,2.61557 -5.35351,0.16363 -9.72565,-0.25703 -12.21366,-1.17513 z"
     style="fill:#fefefe" />
</svg>
