<?xml version="1.0" encoding="UTF-8" standalone="no"?>
<svg
   xmlns:dc="http://purl.org/dc/elements/1.1/"
   xmlns:cc="http://creativecommons.org/ns#"
   xmlns:rdf="http://www.w3.org/1999/02/22-rdf-syntax-ns#"
   xmlns:svg="http://www.w3.org/2000/svg"
   xmlns="http://www.w3.org/2000/svg"
   viewBox="0 0 533.07202 117.30117"
   height="117.30117"
   width="533.07202"
   version="1.1"
   id="svg3384">
  <metadata
     id="metadata3390">
    <rdf:RDF>
      <cc:Work
         rdf:about="">
        <dc:format>image/svg+xml</dc:format>
        <dc:type
           rdf:resource="http://purl.org/dc/dcmitype/StillImage" />
        <dc:title></dc:title>
      </cc:Work>
    </rdf:RDF>
  </metadata>
  <defs
     id="defs3388" />
  <path
     id="path3394"
     d="M 39.500001,114.35906 C 14.947046,105.97947 0,84.891984 0,58.631944 0,37.649274 9.1801709,20.388304 26.321446,9.141164 c 18.617475,-12.2157473 46.2077,-12.1847473 64.563127,0.0725 12.186247,8.13766 21.979417,22.10467 25.156187,35.87774 1.61453,6.99988 1.61453,20.08112 0,27.081 -3.22232,13.97056 -12.81753,27.638303 -25.214865,35.916936 -13.939503,9.30844 -34.91459,11.87064 -51.325894,6.26968 z m 22.671258,-6.8821 C 63.796338,106.00629 64,104.05736 64,89.976954 l 0,-15.84501 -5.5,0 -5.5,0 0,15.67126 c 0,13.178956 0.263204,15.962106 1.654988,17.500006 2.058152,2.27423 5.117129,2.34495 7.516271,0.17375 z m -17.171258,-7.34501 0,-7.000006 -4.532119,0 c -9.641573,0 -15.460406,-5.26918 -15.460406,-14 0,-6.19933 2.750855,-10.36039 8.233395,-12.45419 3.771719,-1.44043 7.728984,-1.63805 27.334657,-1.36504 20.547714,0.28613 23.214885,0.51606 25.725584,2.21773 3.746911,2.53953 5.699684,6.58619 5.69515,11.80184 -0.0074,8.52073 -5.923068,13.79966 -15.464143,13.79966 l -4.532119,0 0,7.000006 c 0,4.52693 0.398265,7 1.127285,7 0.620007,0 4.107507,-1.44754 7.75,-3.21675 13.03949,-6.333473 24.288705,-20.637726 27.181795,-34.563776 1.6629,-8.00446 0.68092,-21.3516 -2.09455,-28.46948 l -2.2421,-5.75 -20.361213,0 -20.361217,0 0,9.5 c 0,7.77778 0.27193,9.5 1.5,9.5 1.111111,0 1.5,1.16667 1.5,4.5 l 0,4.5 -7.5,0 -7.5,0 0,-4.5 c 0,-3.33333 0.388889,-4.5 1.5,-4.5 1.22807,0 1.5,-1.72222 1.5,-9.5 l 0,-9.5 -20.364141,0 -20.364143,0 -1.56984,4.25 c -5.5897461,15.13302 -4.9568421,28.69507 1.988891,42.61858 3.833789,7.68526 14.184283,17.828553 22.309234,21.862646 3.575,1.77501 7.0625,3.23663 7.75,3.24803 0.882928,0.0147 1.25,-2.03485 1.25,-6.97925 z M 28.121495,57.422034 c -1.858178,-0.9154 -4.197909,-3.01177 -5.199402,-4.65859 -1.723673,-2.83436 -1.73016,-3.14981 -0.121495,-5.90804 4.961287,-8.50666 19.463496,-8.7788 25.37548,-0.47618 1.988433,2.79249 2.028789,3.18291 0.581604,5.62671 -3.939131,6.65185 -13.196031,9.08138 -20.636187,5.4161 z m 46.096688,0.0468 c -1.805,-0.88965 -4.204065,-2.91272 -5.331256,-4.49571 -2.004457,-2.815 -2.009246,-2.94662 -0.218183,-5.9966 5.224003,-8.89588 19.957245,-9.03994 25.390791,-0.24827 l 2.09107,3.38342 -2.05561,2.88683 c -4.085559,5.73764 -13.163363,7.77926 -19.876812,4.47033 z m -29.218182,22.16308 0,-5.5 -4.428571,0 c -6.480655,0 -9.606518,4.05174 -6.321429,8.19384 1.563991,1.972 3.364622,2.62676 7.5,2.72721 l 3.25,0.0789 0,-5.5 z m 37.689187,2.91038 c 3.264584,-4.46458 0.327365,-8.41038 -6.260617,-8.41038 l -4.428571,0 0,5.63005 0,5.63005 4.689188,-0.52854 c 2.879722,-0.32458 5.195004,-1.22028 6,-2.32118 z m 9.885437,-60.96772 C 72.958386,3.4752737 43.936773,3.5586337 24.209293,21.770974 l -5.709293,5.2708 40,0 40.000005,0 -5.92538,-5.46717 z m -48.574624,-0.44263 c -1.1,-1.1 -2,-2.57487 -2,-3.27749 0,-2.45915 3.128072,-5.72251 5.485275,-5.72251 5.190741,0 7.464202,6.52112 3.292219,9.4433 -2.937312,2.05737 -4.37057,1.96362 -6.777494,-0.4433 z m 22.222505,0.4433 c -4.171984,-2.92218 -1.898523,-9.4433 3.292219,-9.4433 2.357203,0 5.485275,3.26336 5.485275,5.72251 0,1.65339 -3.6241,5.27749 -5.277494,5.27749 -0.702621,0 -2.277621,-0.70052 -3.5,-1.5567 z M 173.1826,84.230154 c -6.52788,-2.25458 -11.87793,-7.25298 -13.26103,-12.38943 -1.25568,-4.66324 0.13287,-6.96156 3.93266,-6.50934 1.78951,0.21298 3.12577,1.46618 4.5856,4.30056 2.72654,5.29384 7.99161,7.8777 16.03024,7.8669 9.39739,-0.0126 15.52992,-4.11399 15.52992,-10.38623 0,-6.03792 -2.09154,-7.17969 -18.18058,-9.92477 -16.23327,-2.76969 -20.81942,-6.54493 -20.81942,-17.13821 0,-10.15749 7.48836,-16.79037 19.96365,-17.68298 13.26978,-0.94944 23.28687,3.9827 25.91684,12.76073 1.55314,5.18393 0.2497,7.24915 -4.29532,6.80562 -2.28775,-0.22324 -3.16516,-0.86274 -3.39465,-2.47417 -0.86708,-6.08859 -10.99026,-10.27666 -19.97385,-8.2634 -6.35382,1.42393 -9.21667,4.24673 -9.21667,9.08777 0,5.26147 2.67185,6.74876 16.18492,9.00937 12.31135,2.05958 17.86564,4.56708 20.86449,9.41931 2.30763,3.73383 2.57764,10.98355 0.58656,15.74887 -4.08017,9.76524 -20.76617,14.49663 -34.45336,9.7694 z m 48.26781,0.49519 c -3.95851,-1.72422 -8.11515,-6.71805 -9.47925,-11.38847 -0.62391,-2.13615 -0.95276,-9.63296 -0.77664,-17.70493 l 0.30547,-14 4,0 4,0 0.5,15.23095 c 0.48512,14.77763 0.57771,15.30855 3.11098,17.83825 3.79002,3.78469 10.95432,3.81893 14.70688,0.0703 2.62164,-2.6189 2.69342,-3.02288 3.18214,-17.90941 l 0.5,-15.23007 4,0 4,0 0.27294,18.34819 c 0.22235,14.94744 0.52412,18.2518 1.62814,17.82814 3.02181,-1.15957 4.9516,4.57099 2.39892,7.12367 -1.69988,1.69988 -6.94449,1.48752 -9.62463,-0.38972 -2.07439,-1.45296 -2.61144,-1.45296 -6.24274,0 -4.78915,1.91624 -12.3114,1.99981 -16.48221,0.18312 z m 110.25686,-0.20577 c -11.52736,-3.54299 -18.94537,-19.38763 -9.07674,-19.38763 1.85418,0 2.74614,0.90093 4.00377,4.04406 4.63897,11.59393 29.01102,11.18587 31.95277,-0.53499 0.83113,-3.31149 -0.9989,-6.92005 -4.26381,-8.40764 -1.35135,-0.61572 -6.73742,-1.80827 -11.96903,-2.65012 -11.63505,-1.87227 -16.60959,-3.77763 -19.81817,-7.59082 -7.91982,-9.41216 -1.58041,-23.91681 11.75769,-26.90175 15.95953,-3.57159 30.92787,3.37193 31.131,14.44106 0.0736,4.00897 -2.1e-4,4.1002 -3.31577,4.1002 -2.23564,0 -3.68369,-0.59625 -4.25,-1.75 -0.47245,-0.9625 -1.244,-2.5375 -1.71456,-3.5 -1.53646,-3.14269 -6.84441,-5.43553 -12.90177,-5.57309 -7.08211,-0.16083 -11.88121,1.72344 -13.78982,5.41428 -3.80002,7.34843 -0.40767,10.43277 14.19689,12.90793 12.68574,2.14996 13.76315,2.49204 18.20638,5.78058 10.97093,8.11987 6.18848,25.45686 -8.20112,29.73012 -6.26357,1.86008 -15.66862,1.80772 -21.94771,-0.12219 z m 53.36606,0.86773 c -7.82738,-1.42171 -10.14216,-6.44125 -10.83961,-23.50536 l -0.52113,-12.75 -3.23385,0 c -3.77695,0 -5.76588,-1.94748 -5.30551,-5.19496 0.28077,-1.98063 0.98846,-2.34766 5.02843,-2.60786 l 4.70167,-0.30282 0.29833,-5.59367 c 0.3345,-6.27194 2.34815,-8.70067 5.54833,-6.69207 1.25635,0.78856 1.83425,2.67957 2.04867,6.7037 l 0.29868,5.6053 7.70132,0.29119 7.70133,0.29119 0,3.5 0,3.5 -7.75,0.29206 -7.75,0.29207 0.0147,11.20793 c 0.0175,13.26959 1.00354,16.06048 5.83951,16.52737 1.81975,0.17569 4.5573,-0.11585 6.08344,-0.64786 3.53207,-1.23129 5.08507,-0.25388 5.35119,3.36787 0.16151,2.19816 -0.37634,3.14886 -2.28888,4.0458 -3.032,1.42194 -9.61234,2.27211 -12.92666,1.67012 z m 27.16554,-0.52922 c -4.99863,-1.90637 -10.01624,-6.3694 -12.38834,-11.01911 -2.94225,-5.76728 -2.95453,-15.62271 -0.0266,-21.36188 7.68719,-15.06815 30.75261,-16.58011 40.52792,-2.65664 2.43282,3.4652 3.01828,5.45112 3.39023,11.5 0.40592,6.60124 0.16885,7.84427 -2.44046,12.79605 -4.00784,7.60582 -9.80972,11.15187 -19.03259,11.63253 -3.87516,0.20196 -8.1632,-0.17893 -10.03014,-0.89095 z m 12.81797,-7.72539 c 1.95626,-0.54345 4.86043,-2.34875 6.45371,-4.01177 2.43458,-2.54115 2.96115,-4.03327 3.2997,-9.35018 0.37698,-5.92022 0.2034,-6.55365 -2.70288,-9.86372 -5.54641,-6.31701 -16.02042,-6.95295 -21.65835,-1.31502 -3.4878,3.4878 -5.02676,9.66829 -3.59629,14.44278 1.59871,5.33601 3.92501,7.91615 8.64726,9.59083 4.87358,1.72835 5.11462,1.74113 9.55685,0.50708 z m 79.67161,7.73732 c -9.47066,-3.1089 -14.68454,-10.82721 -14.68454,-21.73807 0,-14.20832 8.86434,-23.07052 22.95608,-22.95053 5.26,0.0448 11.26899,1.99265 14.20743,4.60545 4.75627,4.22919 7.68068,17.05697 4.59257,20.14508 -0.83207,0.83207 -6.04444,1.2 -17,1.2 -10.365,0 -15.8,0.36107 -15.8,1.04966 0,2.38121 3.21492,7.00813 5.76693,8.29976 4.96412,2.51248 9.9082,2.8254 16.9072,1.07012 6.36678,-1.59673 6.72794,-1.59017 7.99689,0.14524 2.34403,3.20565 1.59158,5.42755 -2.40333,7.09673 -4.90468,2.04931 -17.7124,2.66106 -22.53923,1.07656 z m 18.97402,-29.98807 c -3.53828,-8.82362 -18.59738,-8.65529 -23.20735,0.25942 l -1.54649,2.99058 13.02855,0 13.02855,0 -1.30326,-3.25 z m -265.70248,15.43536 c 0,-17.62523 -0.43521,-20.4617 -3.33488,-21.73478 -2.54529,-1.11749 -3.36232,-4.90558 -1.53337,-7.10932 1.56896,-1.89049 8.37712,-1.26097 10.62008,0.982 1.30221,1.30221 1.96524,1.2548 5.61241,-0.40134 4.60157,-2.08952 12.02305,-2.48085 16.32066,-0.86059 4.38884,1.65466 8.99681,6.72474 10.25645,11.28502 0.68871,2.49331 1.02967,9.74988 0.85299,18.15365 l -0.29434,14 -4,0 -4,0 -0.5,-15.23095 c -0.48486,-14.76979 -0.57891,-15.30974 -3.10606,-17.83333 -4.45548,-4.4492 -15.00567,-3.01874 -17.51114,2.37427 -0.43183,0.92951 -1.03212,8.21501 -1.33397,16.19001 l -0.54883,14.5 -3.75,0.31036 -3.75,0.31037 0,-14.93537 z m 190.71426,14.19556 c -0.39284,-0.39284 -0.71426,-8.40755 -0.71426,-17.81046 0,-16.77025 -0.0429,-17.11502 -2.25,-18.08333 -4.47776,-1.9645 -2.9882,-8.48713 1.93819,-8.48713 2.51396,0 6.38549,1.65131 7.36593,3.14177 0.30476,0.4633 2.31241,-0.0541 4.46144,-1.1497 7.95651,-4.05646 19.78813,-1.58198 24.58337,5.1414 2.27605,3.19124 2.41744,4.26469 2.71553,20.61653 l 0.31446,17.25 -4.06446,0 -4.06446,0 -0.002,-13.75 c -0.002,-16.16093 -1.22187,-20.01417 -6.92018,-21.85596 -4.25103,-1.374 -9.64812,-0.26735 -12.47923,2.5588 -1.89695,1.89362 -2.14718,3.56128 -2.59904,17.32126 l -0.49955,15.2259 -3.53574,0.29759 c -1.94466,0.16368 -3.85716,-0.0238 -4.25,-0.41667 z"
     style="fill:#fefefe" />
</svg>
