<?xml version="1.0" encoding="UTF-8" standalone="no"?>
<svg
   xmlns:dc="http://purl.org/dc/elements/1.1/"
   xmlns:cc="http://creativecommons.org/ns#"
   xmlns:rdf="http://www.w3.org/1999/02/22-rdf-syntax-ns#"
   xmlns:svg="http://www.w3.org/2000/svg"
   xmlns="http://www.w3.org/2000/svg"
   viewBox="0 0 57 35"
   height="35"
   width="57"
   version="1.1"
   id="svg3476">
  <metadata
     id="metadata3482">
    <rdf:RDF>
      <cc:Work
         rdf:about="">
        <dc:format>image/svg+xml</dc:format>
        <dc:type
           rdf:resource="http://purl.org/dc/dcmitype/StillImage" />
        <dc:title></dc:title>
      </cc:Work>
    </rdf:RDF>
  </metadata>
  <defs
     id="defs3480" />
  <path
     id="path3514"
     d="m 36.002526,33.969576 c -1.145141,-0.987427 -1.266512,-1.391495 -1.417216,-4.7182 -0.140872,-3.109677 -0.06023,-3.63829 0.555023,-3.63829 0.590147,0 0.719841,0.548708 0.719841,3.045483 0,3.430571 0.774142,5.04286 2.421331,5.04286 2.251552,0 2.509443,-0.98222 2.509443,-9.557601 0,-5.124084 0.168662,-8.018598 0.478423,-8.210511 0.263133,-0.163024 0.587969,0.123524 0.721859,0.636774 0.199353,0.764202 0.399575,0.849412 1.105717,0.470568 1.04935,-0.562973 4.838401,-0.365795 4.984885,0.259408 0.0579,0.247144 -0.975576,0.558136 -2.296625,0.691094 -3.078627,0.309849 -3.649502,1.063399 -3.649502,4.8173 0,2.777999 0.03069,2.854274 1.008567,2.506551 1.596871,-0.567829 4.93721,-0.447395 5.151533,0.185736 0.134023,0.395907 -0.422258,0.561691 -1.884721,0.561691 -2.879581,0 -4.275379,1.398283 -4.275379,4.282988 0,1.696579 -0.240028,2.317693 -1.310276,3.390568 -1.601186,1.605116 -3.145558,1.679913 -4.822903,0.233581 z M 1.4568196,28.763478 C 0.65556878,28.273747 0,27.701579 0,27.491993 c 0,-0.854294 0.60697378,-0.870111 1.9474316,-0.05075 1.7176037,1.049896 2.6123195,1.083371 4.3856723,0.164083 2.2440983,-1.163318 2.6319396,-2.833602 2.6319396,-11.334818 l 0,-7.574033 2.5620575,-0.06757 c 1.515832,-0.03998 2.942372,0.182231 3.493399,0.544162 0.787279,0.517112 1.062923,0.515285 1.782013,-0.01182 1.177209,-0.862908 3.532936,-0.780334 4.644821,0.162816 1.248902,1.059381 1.781838,3.257805 0.789744,3.257805 -0.396537,0 -0.720973,-0.288869 -0.720973,-0.641932 0,-1.898606 -3.578886,-2.848077 -4.466753,-1.185019 -0.255212,0.47804 -0.463268,2.045157 -0.462345,3.482481 l 0.0018,2.613318 0.874383,-1.437557 c 0.906026,-1.489571 3.775099,-2.677125 5.423693,-2.24495 0.607828,0.15934 0.857336,-0.149861 1.079686,-1.338 0.407915,-2.179622 1.674444,-3.292513 3.747071,-3.292513 1.21296,0 2.000132,0.304391 2.689513,1.040004 0.854653,0.91197 0.974641,1.548148 0.974641,5.167553 0,4.567029 -0.35237,5.025527 -2.275187,2.960437 -3.405623,-3.65761 -9.420308,-4.235065 -10.74402,-1.031507 -0.490898,1.188047 -0.449175,1.507557 0.334849,2.564251 1.161718,1.565744 2.466772,1.725658 4.384873,0.537297 1.952016,-1.209373 4.675197,-1.269791 6.59917,-0.146413 1.36702,0.798182 1.486231,1.054667 1.611972,3.468219 0.103394,1.984599 -0.0035,2.560296 -0.448252,2.413459 -0.336249,-0.111022 -0.640891,-1.056277 -0.718045,-2.227977 -0.136711,-2.076163 -0.625319,-2.604556 -3.003756,-3.248337 -1.44075,-0.389973 -1.911313,0.252216 -2.111996,2.882291 -0.103718,1.359291 -0.345819,2.819348 -0.538002,3.244571 -0.271894,0.601588 0.0029,0.941565 1.238547,1.532242 2.136332,1.021246 4.184524,0.430761 5.549666,-1.599944 0.96244,-1.43167 1.016685,-1.940374 1.016685,-9.534254 0,-6.831002 0.09982,-8.021892 0.672379,-8.021892 0.531531,0 0.672378,0.637956 0.672378,3.045484 0,3.461613 0.77305,5.042859 2.465387,5.042859 2.027416,0 2.465387,-1.420865 2.465387,-7.998216 l 0,-6.000839 1.310276,-1.313491 C 40.650001,0.521657 41.642829,1e-6 42.359972,1e-6 c 1.421493,0 3.810148,2.215365 3.810148,3.533734 0,1.597708 -0.795267,1.465487 -1.642691,-0.273113 -1.022787,-2.098395 -2.808197,-2.526629 -3.917122,-0.93953 -0.567483,0.812184 -0.715722,2.249753 -0.715722,6.940836 0,5.166146 -0.109137,6.051029 -0.860551,6.977316 -0.805398,0.992836 -0.81266,1.114157 -0.113311,1.892984 0.527098,0.587 0.794604,1.877722 0.908014,4.381186 0.137082,3.026032 0.0547,3.549026 -0.559067,3.549026 -0.592397,0 -0.719841,-0.556888 -0.719841,-3.145467 0,-2.54633 -0.170763,-3.316649 -0.896504,-4.044172 -1.05595,-1.058541 -1.760561,-1.125463 -2.917883,-0.277131 -0.635076,0.465518 -0.922141,1.432752 -1.143397,3.852543 -0.332965,3.641509 -1.171922,5.146992 -3.616541,6.489773 -1.896742,1.041843 -4.475459,0.708028 -5.955216,-0.770903 -0.648669,-0.648306 -1.567737,-0.993683 -2.708602,-1.017866 -1.958817,-0.04152 -3.381457,-1.370419 -3.381457,-3.158644 0,-1.419922 0.803371,-1.377371 1.163653,0.06163 0.474646,1.895777 2.653187,2.613355 3.959229,1.304107 0.932253,-0.934541 0.98245,-4.315506 0.0588,-3.960197 -0.506817,0.194961 -0.542328,0.475556 -0.165199,1.305299 0.51563,1.134462 0.235268,2.462319 -0.519888,2.462319 -0.25428,0 -0.462323,-0.70773 -0.462323,-1.572734 0,-1.326696 -0.15778,-1.575224 -1.008567,-1.588656 -1.415298,-0.02235 -3.045237,-1.01482 -3.744918,-2.2803 -0.560759,-1.014213 -0.594656,-0.955252 -0.609655,1.060504 -0.01183,1.59062 -0.187194,2.134424 -0.688264,2.134424 -0.561158,0 -0.672378,-0.91256 -0.672378,-5.516921 0,-6.259409 -0.448974,-7.514298 -2.688478,-7.514298 -0.711085,0 -1.456071,0.25276 -1.655525,0.56169 -0.199455,0.30893 -0.463502,3.806269 -0.586771,7.771866 -0.247306,7.955861 -0.5354112,8.884983 -3.2741823,10.559017 -1.8284979,1.117635 -3.7342464,1.112563 -5.5788086,-0.01485 z M 29.592365,10.569107 c -1.358833,-1.641312 -3.886577,-0.647566 -4.136006,1.626011 -0.107914,0.983659 0.25224,1.443888 2.11115,2.697761 L 29.80877,16.404656 29.943238,13.78 c 0.07396,-1.443561 -0.08394,-2.888463 -0.350873,-3.210893 z m 15.232852,17.96477 c 0,-0.466096 0.467061,-0.674029 1.514003,-0.674029 2.551783,0 2.720097,-0.564446 2.968523,-9.955099 0.137331,-5.191158 0.397717,-8.474935 0.672379,-8.479439 0.246538,-0.004 0.549108,1.280808 0.672378,2.855224 0.247708,3.163802 0.926152,4.345504 2.494855,4.345504 1.967056,0 2.435919,-1.470341 2.435919,-7.63899 0,-4.439348 -0.152527,-5.859908 -0.71572,-6.665957 C 53.758627,0.733992 51.973217,1.162226 50.950431,3.260621 50.10301,4.999221 49.307743,5.131442 49.307743,3.533734 49.307743,2.215365 51.696394,0 53.117887,0 c 0.717145,0 1.70997,0.521656 2.499866,1.313492 l 1.310277,1.313491 0,6.2649 c 0,5.46707 -0.108091,6.402653 -0.848779,7.346596 -0.83287,1.061422 -0.83287,1.10139 0,2.132466 1.120151,1.386725 1.264748,7.691494 0.176401,7.691494 -0.533635,0 -0.672378,-0.649065 -0.672378,-3.145467 0,-2.54633 -0.170762,-3.316649 -0.896505,-4.044172 -1.134414,-1.1372 -2.003351,-1.1372 -3.137765,0 -0.735479,0.737284 -0.896504,1.497842 -0.896504,4.234371 0,2.933002 -0.140088,3.502559 -1.160476,4.718201 -0.931598,1.109856 -1.506257,1.382533 -2.913639,1.382533 -1.259535,0 -1.753168,-0.189783 -1.753168,-0.674028 z m -22.86086,-11.23381 c 0,-2.962122 0.739535,-3.312119 0.966039,-0.457195 0.178481,2.249622 0.04977,2.928633 -0.55514,2.928633 -0.225995,0 -0.410899,-1.112147 -0.410899,-2.471438 z m 1.965156,0.4756 c -0.35696,-0.932507 -0.03988,-2.167876 0.612294,-2.385558 0.378716,-0.126406 0.560315,0.33484 0.560315,1.42316 0,1.608618 -0.704046,2.186452 -1.172609,0.962398 z m 17.148084,-3.258823 c -0.157657,-0.158043 -0.286649,-1.059294 -0.286649,-2.00278 0,-1.245846 0.337438,-2.083498 1.232694,-3.060021 1.077956,-1.175809 1.568936,-1.356085 3.911322,-1.436146 2.689791,-0.09193 4.19361,-0.919196 4.81941,-2.6512 0.187898,-0.520032 0.35173,-0.53747 0.82703,-0.08803 0.488841,0.462244 0.432169,0.777247 -0.323369,1.797409 -1.279877,1.728151 -2.697098,2.34601 -5.39883,2.353698 -2.681145,0.0076 -3.7235,0.973486 -3.7235,3.450231 0,1.426065 -0.498736,2.197583 -1.058108,1.636837 z"
     style="fill:#101010" />
</svg>
