<?xml version="1.0" encoding="UTF-8" standalone="no"?>
<!-- Created with Inkscape (http://www.inkscape.org/) -->

<svg
   xmlns:dc="http://purl.org/dc/elements/1.1/"
   xmlns:cc="http://creativecommons.org/ns#"
   xmlns:rdf="http://www.w3.org/1999/02/22-rdf-syntax-ns#"
   xmlns:svg="http://www.w3.org/2000/svg"
   xmlns="http://www.w3.org/2000/svg"
   xmlns:sodipodi="http://sodipodi.sourceforge.net/DTD/sodipodi-0.dtd"
   xmlns:inkscape="http://www.inkscape.org/namespaces/inkscape"
   id="svg3476"
   version="1.1"
   inkscape:version="0.91 r13725"
   width="114"
   height="70"
   viewBox="0 0 114 70"
   sodipodi:docname="apple-touch-icon-svg-114x70.svg">
  <metadata
     id="metadata3482">
    <rdf:RDF>
      <cc:Work
         rdf:about="">
        <dc:format>image/svg+xml</dc:format>
        <dc:type
           rdf:resource="http://purl.org/dc/dcmitype/StillImage" />
        <dc:title></dc:title>
      </cc:Work>
    </rdf:RDF>
  </metadata>
  <defs
     id="defs3480" />
  <sodipodi:namedview
     pagecolor="#ffffff"
     bordercolor="#666666"
     borderopacity="1"
     objecttolerance="10"
     gridtolerance="10"
     guidetolerance="10"
     inkscape:pageopacity="0"
     inkscape:pageshadow="2"
     inkscape:window-width="1366"
     inkscape:window-height="705"
     id="namedview3478"
     showgrid="false"
     inkscape:zoom="2.2677165"
     inkscape:cx="63.059028"
     inkscape:cy="39.330845"
     inkscape:window-x="-8"
     inkscape:window-y="32"
     inkscape:window-maximized="1"
     inkscape:current-layer="svg3476"
     fit-margin-top="0"
     fit-margin-left="0"
     fit-margin-right="0"
     fit-margin-bottom="0" />
  <path
     style="fill:#101010"
     d="m 72.005052,67.939152 c -2.290282,-1.974854 -2.533024,-2.78299 -2.834433,-9.436401 -0.281743,-6.219353 -0.12046,-7.276579 1.110047,-7.276579 1.180294,0 1.439682,1.097415 1.439682,6.090965 0,6.861143 1.548283,10.085721 4.842662,10.085721 4.503104,0 5.018886,-1.96444 5.018886,-19.115202 0,-10.248168 0.337325,-16.037195 0.956846,-16.421021 0.526266,-0.326049 1.175937,0.247047 1.443719,1.273548 0.398705,1.528404 0.799149,1.698824 2.211433,0.941136 2.098701,-1.125947 9.676802,-0.731591 9.969771,0.518816 0.115805,0.494287 -1.951153,1.116271 -4.59325,1.382188 -6.157254,0.619697 -7.299006,2.126797 -7.299006,9.634599 0,5.555997 0.06139,5.708548 2.017135,5.013103 3.193742,-1.13566 9.874421,-0.894791 10.303066,0.371471 0.268047,0.791814 -0.844516,1.123382 -3.769442,1.123382 -5.759161,0 -8.550759,2.796567 -8.550759,8.565976 0,3.393158 -0.480055,4.635386 -2.620551,6.781136 -3.202372,3.210231 -6.291115,3.359826 -9.645806,0.467162 z M 2.9136392,57.526956 C 1.3111376,56.547494 0,55.403158 0,54.983986 c 0,-1.708588 1.2139476,-1.740222 3.8948632,-0.1015 3.4352074,2.099792 5.224639,2.166742 8.7713448,0.328165 4.488197,-2.326634 5.263878,-5.667203 5.263878,-22.669635 l 0,-15.148066 5.124117,-0.135132 c 3.031663,-0.07996 5.884743,0.364463 6.986797,1.088325 1.574558,1.034223 2.125846,1.03057 3.564026,-0.02364 2.354418,-1.725817 7.065872,-1.560668 9.289642,0.325632 2.497805,2.118761 3.563676,6.515609 1.579489,6.515609 -0.793075,0 -1.441947,-0.577737 -1.441947,-1.283863 0,-3.797212 -7.157772,-5.696155 -8.933505,-2.370038 -0.510424,0.956079 -0.926537,4.090313 -0.924691,6.964962 l 0.0036,5.226636 1.748765,-2.875114 c 1.812052,-2.979142 7.550198,-5.35425 10.847386,-4.4899 1.215657,0.31868 1.714673,-0.299722 2.159372,-2.676001 0.81583,-4.359244 3.348888,-6.585026 7.494142,-6.585026 2.42592,0 4.000265,0.608782 5.379027,2.080009 1.709305,1.823939 1.949281,3.096296 1.949281,10.335105 0,9.134058 -0.70474,10.051055 -4.550373,5.920875 -6.811205,-7.315228 -18.840575,-8.470138 -21.487999,-2.063022 -0.981796,2.376094 -0.89835,3.015115 0.669698,5.128502 2.323437,3.131488 4.933545,3.451317 8.769746,1.074594 3.904033,-2.418746 9.350394,-2.539582 13.19834,-0.292826 2.73404,1.596364 2.972462,2.109334 3.223944,6.936439 0.206788,3.969197 -0.007,5.120592 -0.896504,4.826916 -0.672498,-0.222043 -1.281783,-2.112554 -1.436089,-4.455953 -0.273423,-4.152325 -1.250639,-5.209112 -6.007512,-6.496675 -2.881501,-0.779944 -3.822626,0.504433 -4.223993,5.764583 -0.207436,2.718582 -0.691638,5.638696 -1.076003,6.489142 -0.543788,1.203176 0.0059,1.88313 2.477093,3.064483 4.272664,2.042492 8.369049,0.861522 11.099333,-3.199887 1.924879,-2.863341 2.033369,-3.880748 2.033369,-19.068507 0,-13.662005 0.199641,-16.043786 1.344758,-16.043786 1.063063,0 1.344757,1.275913 1.344757,6.090969 0,6.923226 1.546099,10.085718 4.930774,10.085718 4.054831,0 4.930773,-2.84173 4.930773,-15.996432 l 0,-12.001678 2.620552,-2.626982 C 81.300003,1.043314 83.285658,2e-6 84.719944,2e-6 c 2.842986,0 7.620297,4.43073 7.620297,7.067468 0,3.195416 -1.590535,2.930974 -3.285384,-0.546226 -2.045573,-4.19679 -5.616393,-5.053258 -7.834243,-1.87906 -1.134966,1.624368 -1.431444,4.499506 -1.431444,13.881671 0,10.332293 -0.218274,12.10206 -1.721102,13.954634 -1.610797,1.985671 -1.62532,2.228313 -0.226621,3.785967 1.054196,1.174 1.589207,3.755444 1.816028,8.762373 0.274163,6.052063 0.109392,7.09805 -1.118134,7.09805 -1.184795,0 -1.439683,-1.113774 -1.439683,-6.290933 0,-5.092661 -0.341526,-6.633298 -1.793008,-8.088344 -2.1119,-2.117082 -3.521122,-2.250926 -5.835766,-0.554261 -1.270151,0.931035 -1.844282,2.865504 -2.286794,7.705086 -0.665931,7.283017 -2.343844,10.293983 -7.233081,12.979544 -3.793485,2.083687 -8.950919,1.416057 -11.910434,-1.541805 -1.297337,-1.296612 -3.135473,-1.987366 -5.417204,-2.035732 -3.917633,-0.08305 -6.762913,-2.740838 -6.762913,-6.317287 0,-2.839845 1.606742,-2.754744 2.327306,0.123263 0.949293,3.791555 5.306374,5.226711 7.918458,2.608215 1.864506,-1.869083 1.964901,-8.631011 0.117594,-7.920394 -1.013634,0.389923 -1.084656,0.951113 -0.330399,2.610598 1.031261,2.268924 0.470537,4.924638 -1.039775,4.924638 -0.50856,0 -0.924646,-1.41546 -0.924646,-3.145469 0,-2.653391 -0.31556,-3.150447 -2.017135,-3.177311 -2.830595,-0.0447 -6.090474,-2.02964 -7.489835,-4.5606 -1.121518,-2.028427 -1.189313,-1.910504 -1.219311,2.121008 -0.02365,3.18124 -0.374387,4.268848 -1.376527,4.268848 -1.122316,0 -1.344756,-1.82512 -1.344756,-11.033842 0,-12.518818 -0.897949,-15.028596 -5.376957,-15.028596 -1.422169,0 -2.912141,0.505519 -3.311049,1.123379 -0.39891,0.617857 -0.927004,7.612533 -1.173543,15.543729 -0.494611,15.911721 -1.070821,17.769964 -6.548364,21.118033 -3.656996,2.23527 -7.4684927,2.225126 -11.1576171,-0.0297 z M 59.184729,21.138214 c -2.717665,-3.282623 -7.773153,-1.295132 -8.272011,3.252021 -0.215829,1.967319 0.50448,2.887777 4.222301,5.395522 l 4.482521,3.023555 0.268935,-5.249313 c 0.147915,-2.887121 -0.167879,-5.776925 -0.701746,-6.421785 z m 30.465706,35.92954 c 0,-0.932193 0.934122,-1.348058 3.028006,-1.348058 5.103564,0 5.440194,-1.128892 5.937045,-19.910198 0.274663,-10.382316 0.795434,-16.94987 1.344759,-16.958878 0.493075,-0.008 1.098215,2.561617 1.344755,5.710449 0.49542,6.327604 1.8523,8.691007 4.98971,8.691007 3.93411,0 4.87184,-2.940682 4.87184,-15.27798 0,-8.878696 -0.30506,-11.719816 -1.43144,-13.331914 -2.21786,-3.174198 -5.78868,-2.31773 -7.83425,1.87906 -1.69484,3.4772 -3.285374,3.741642 -3.285374,0.546226 C 98.615486,4.43073 103.39279,0 106.23577,0 c 1.43429,0 3.41994,1.043312 4.99974,2.626984 l 2.62055,2.626982 0,12.5298 c 0,10.93414 -0.21618,12.805307 -1.69756,14.693192 -1.66574,2.122844 -1.66574,2.202781 0,4.264932 2.2403,2.77345 2.5295,15.382988 0.3528,15.382988 -1.06727,0 -1.34475,-1.298129 -1.34475,-6.290933 0,-5.092661 -0.34153,-6.633299 -1.79301,-8.088344 -2.26883,-2.274401 -4.0067,-2.274401 -6.27553,0 -1.47096,1.474567 -1.79301,2.995683 -1.79301,8.468741 0,5.866005 -0.28018,7.005118 -2.320952,9.436402 -1.863197,2.219712 -3.012515,2.765066 -5.827277,2.765066 -2.519071,0 -3.506336,-0.379566 -3.506336,-1.348056 z M 43.928714,34.600135 c 0,-5.924245 1.479069,-6.624239 1.932078,-0.914391 0.356961,4.499245 0.09955,5.857266 -1.11028,5.857266 -0.45199,0 -0.821798,-2.224293 -0.821798,-4.942875 z m 3.930312,0.951199 c -0.713921,-1.865014 -0.07975,-4.335752 1.224588,-4.771115 0.757431,-0.252813 1.120631,0.669679 1.120631,2.846319 0,3.217237 -1.408093,4.372905 -2.345219,1.924796 z M 82.155194,29.033689 C 81.83988,28.717602 81.581896,26.9151 81.581896,25.028128 c 0,-2.491691 0.674875,-4.166997 2.465388,-6.120041 2.155912,-2.351618 3.137872,-2.712171 7.822643,-2.872293 5.379583,-0.18386 8.387223,-1.838392 9.638823,-5.3024 0.37579,-1.040064 0.70346,-1.07494 1.65406,-0.17606 0.97768,0.924488 0.86434,1.554494 -0.64674,3.594818 -2.559754,3.456302 -5.394196,4.69202 -10.79766,4.707396 -5.36229,0.01511 -7.447001,1.946972 -7.447001,6.900462 0,2.852131 -0.997471,4.395166 -2.116215,3.273674 z"
     id="path3514"
     inkscape:connector-curvature="0" />
</svg>
