<?xml version="1.0" encoding="UTF-8" standalone="no"?>
<svg
   xmlns:dc="http://purl.org/dc/elements/1.1/"
   xmlns:cc="http://creativecommons.org/ns#"
   xmlns:rdf="http://www.w3.org/1999/02/22-rdf-syntax-ns#"
   xmlns:svg="http://www.w3.org/2000/svg"
   xmlns="http://www.w3.org/2000/svg"
   viewBox="0 0 463 153.4931"
   height="153.4931"
   width="463"
   version="1.1"
   id="svg3510">
  <metadata
     id="metadata3516">
    <rdf:RDF>
      <cc:Work
         rdf:about="">
        <dc:format>image/svg+xml</dc:format>
        <dc:type
           rdf:resource="http://purl.org/dc/dcmitype/StillImage" />
        <dc:title></dc:title>
      </cc:Work>
    </rdf:RDF>
  </metadata>
  <defs
     id="defs3514" />
  <g
     transform="translate(0,-0.50689161)"
     id="g3536">
    <path
       id="path3546"
       d="M 7.9230769,151.07692 5,148.15385 5,133.75124 C 5,119.68142 4.9422338,119.29436 2.5,117 0.10404706,114.74912 0,114.15443 0,102.71101 0,91.665331 0.19993338,90.403313 2.6683197,85.868074 8.5228923,75.111296 22.339418,70.833122 31.093376,77.066489 33.055114,78.46337 35.480708,79 39.832942,79 c 5.882563,0 8.182355,1.022922 9.514951,4.232143 C 50.16361,85.19659 53,81.120013 53,77.983184 53,76.495493 51.955615,74.367479 50.600858,73.094751 49.28133,71.855119 46.940789,68.064177 45.399657,64.670437 42.894519,59.153852 42.554291,57.117497 42.188909,45.453248 41.466421,22.388943 46.644841,11.049592 61.5,3.1671361 65.990956,0.78414167 67.568993,0.51331799 77,0.50701615 86.665833,0.50055739 87.965249,0.73573514 93.356283,3.4672935 99.900944,6.7833785 105.63952,12.709719 109.15569,19.783647 111.35326,24.204793 111.5,25.626662 111.5,42.5 c 0,17.068416 -0.12392,18.232896 -2.39429,22.5 -1.31685,2.475 -3.45435,5.892476 -4.75,7.594391 -2.68307,3.524405 -3.08439,8.555969 -0.83154,10.425665 0.83829,0.69572 1.62579,1.08832 1.75,0.872445 0.1242,-0.215876 0.72281,-1.292501 1.33022,-2.392501 0.90272,-1.634764 2.32234,-2.054097 7.77372,-2.296231 5.10286,-0.226653 7.51859,-0.87256 10.28515,-2.75 4.49729,-3.051945 10.13878,-3.179625 16.33674,-0.369739 6.04775,2.741786 8.81278,5.457664 11.62258,11.41597 1.989,4.21777 2.35941,6.58174 2.36765,15.11045 0.009,9.03428 -0.24589,10.48719 -2.39207,13.64976 -2.20404,3.24784 -2.4305,4.70728 -2.75,17.72268 L 149.5,148.16627 146.23422,151.08313 142.96845,154 76.9073,154 10.846154,154 7.9230769,151.07692 Z M 26,141.04263 c 0,-7.78211 -0.07158,-8.01414 -3.25,-10.53511 -1.7875,-1.41776 -5.177077,-3.72115 -7.532393,-5.11863 l -4.282393,-2.54088 0.282393,11.79841 c 0.274162,11.45453 0.355258,11.83522 2.782393,13.06125 1.375,0.69457 4.6375,1.26948 7.25,1.27759 L 26,149 l 0,-7.95737 z m 24.335942,3.48533 c 2.300352,-5.59388 8.260311,-11.62888 14.428249,-14.60992 7.184581,-3.4724 17.869417,-3.31051 25.42318,0.3852 6.408054,3.13517 11.203039,8.06444 14.003769,14.39595 l 1.90245,4.30081 7.83089,0 7.83088,0 0.4307,-9.00838 c 0.23688,-4.9546 0.93172,-9.5094 1.54408,-10.12176 0.81785,-0.81785 -2.11341,-4.63746 -11.04308,-14.38976 l -12.15647,-13.27638 -3.668122,2.90521 c -4.821454,3.81866 -16.461381,9.2244 -19.862468,9.2244 -3.665932,0 -14.791501,-5.33336 -19.19999,-9.20406 l -3.605257,-3.16546 -12.026456,13.13953 C 31.275669,127.0041 30.229432,128.47325 31.07092,130.68653 31.581914,132.03055 32,136.7009 32,141.0651 l 0,7.9349 8.25,-0.004 8.25,-0.004 1.835942,-4.46454 z M 99,148.45034 c 0,-3.11259 -6.419801,-10.17329 -11.645027,-12.80758 -10.363136,-5.22455 -24.477414,-0.90401 -30.168958,9.23505 L 54.872031,149 76.936015,149 C 89.071207,149 99,148.75265 99,148.45034 Z m 42.54545,-1.90489 C 143.84286,144.24805 144,143.41209 144,133.48777 l 0,-10.60314 -5.02712,2.80768 c -10.05268,5.61451 -10.40356,6.10769 -10.81661,15.2032 L 127.78823,149 l 5.65134,0 c 4.66685,0 6.07893,-0.42759 8.10588,-2.45455 z M 37.688064,110.68186 49.782955,97.363717 47.938423,94.931859 C 46.923931,93.594336 45.329423,90.8125 44.395071,88.75 42.725013,85.063489 42.601171,85 37.08026,85 32.673097,85 30.636698,84.437651 27.619528,82.387431 24.60635,80.339923 23.011825,79.898674 20.24722,80.347308 15.202984,81.165874 9.5981924,85.219631 7.5536833,89.528114 5.2425221,94.398524 4.4178479,107.61553 6.215135,110.98096 c 1.0794638,2.02129 16.884288,12.93185 18.831451,12.99993 0.300623,0.0105 5.989288,-5.97405 12.641478,-13.29903 z M 140,117.74329 c 3.575,-2.15807 7.0625,-4.64416 7.75,-5.52465 1.80692,-2.31415 1.61313,-16.413794 -0.28814,-20.96416 -1.9848,-4.750299 -4.08929,-7.021955 -8.67202,-9.36089 -4.86637,-2.483694 -7.44595,-2.350936 -12.28984,0.632496 -3.0299,1.866166 -5.39452,2.46491 -9.75,2.468791 -4.0582,0.0036 -5.75,0.388858 -5.75,1.309342 0,0.717321 -1.37291,3.469073 -3.05091,6.115005 -3.56615,5.623243 -4.86142,3.20622 10.88818,20.317826 11.67427,12.68384 9.35362,12.13487 21.16273,5.00624 z M 84.349197,105.52802 c 5.964372,-2.8216 12.54394,-8.149727 15.841353,-12.828307 2.10442,-2.98588 1.93419,-2.919298 -2.547191,0.996319 C 91.14403,99.374831 84.830834,101.36296 75.088318,100.79897 66.694578,100.31306 58.596207,96.844707 54.908314,92.156311 53.858741,90.821995 53,90.21954 53,90.817522 c 0,2.243619 10.108207,11.080448 16.098897,14.074038 7.505128,3.75035 8.573786,3.79495 15.2503,0.63646 z m 1.027386,-11.615552 c 2.132121,-0.592008 5.622549,-2.726999 7.756507,-4.744423 3.424955,-3.237921 3.785255,-4.01057 3.072595,-6.589059 C 95.297449,79.292883 94.494031,79.779007 90.949843,85.75914 84.970789,95.847641 68.933496,95.343442 63.053901,84.882114 60.601625,80.518878 59.435907,80.051219 58.48446,83.048963 56.093522,90.58214 72.907848,97.374557 85.376583,93.912468 Z M 82,86 c 1.059639,-0.684791 -0.261446,-0.969374 -4.5,-0.969374 -4.238554,0 -5.559639,0.284583 -4.5,0.969374 0.825,0.533156 2.85,0.969374 4.5,0.969374 1.65,0 3.675,-0.436218 4.5,-0.969374 z M 74,74 c 0,-4.799416 -0.111381,-5 -2.776426,-5 -2.662151,0 -2.760044,0.174925 -2.378404,4.25 0.391288,4.17809 1.430558,5.704377 3.90483,5.734687 C 73.585375,78.994921 74,77.3415 74,74 Z m 10.404441,4.154618 c 0.287361,-0.464961 0.821433,-2.714961 1.186825,-5 C 86.251504,69.025716 86.236256,69 83.127808,69 80.041105,69 80,69.065709 80,74 c 0,4.282657 0.27847,5 1.940983,5 1.067541,0 2.176097,-0.380422 2.463458,-0.845382 z M 62.519709,71.089733 c -0.552646,-2.516181 -1.378731,-3.243955 -4.696103,-4.137231 -2.214019,-0.596173 -4.21427,-0.895172 -4.445001,-0.66444 -0.230732,0.230731 1.648896,2.326103 4.176951,4.656382 2.528054,2.33028 4.83008,4.003253 5.115614,3.71772 0.285533,-0.285534 0.217376,-1.893128 -0.151461,-3.572431 z m 36.939317,-2.334697 c 0.822234,-1.173904 1.378304,-2.251042 1.235704,-2.393639 -0.1426,-0.142598 -2.157247,0.22249 -4.476999,0.811306 C 92.283702,68.171265 92,68.475099 92,71.689733 l 0,3.446455 2.982027,-2.12339 c 1.640115,-1.167865 3.654765,-3.083858 4.476999,-4.257762 z M 74,61.106989 C 74,59.125416 72.15927,58 68.918213,58 66.905214,58 66.60031,58.79485 67.606989,61.418213 68.522802,63.804784 74,63.538144 74,61.106989 Z M 87,60.5 C 87,57.927216 86.13865,57.588168 82.25,58.630286 80.926551,58.984957 80,60.008835 80,61.116631 80,62.602386 80.738915,63 83.5,63 86.566667,63 87,62.690476 87,60.5 Z m 17.25,-3.293133 c 3.66516,-3.176843 1.87399,-3.843959 -4.75,-1.769124 -5.416191,1.696515 -6.5,2.40323 -6.5,4.238429 0,2.182192 0.04365,2.187936 4.75,0.624984 2.6125,-0.867596 5.5375,-2.260026 6.5,-3.094289 z M 61,59.203889 C 61,57.880414 59.323302,56.862643 54.628208,55.336156 48.316875,53.284189 48.261335,53.283341 48.774786,55.246783 49.29945,57.2531 56.033879,60.937677 59.25,60.978038 60.275267,60.990905 61,60.256171 61,59.203889 Z M 96.469337,49.936756 C 103.7374,47.691881 106,45.922881 106,42.485275 106,37.467791 103.5987,37 77.842593,37 64.800777,37 53.01441,37.424222 51.650669,37.942716 c -3.251143,1.236082 -4.240403,4.508291 -2.271438,7.513312 4.449188,6.790319 31.331092,9.348192 47.090106,4.480728 z M 105.56984,28.599199 C 103.44619,17.980961 91.183913,6.1091649 82.25,6.021962 80.064738,6.0006319 80,6.2886266 80,16.031385 80,24.063214 79.698467,26.178479 78.487265,26.64326 75.116488,27.936749 74,25.133699 74,15.377555 74,4.5607207 73.8539,4.4403388 65.5,8.3738103 57.26011,12.2536 50.948279,19.665079 49.211582,27.5 l -0.886645,4 28.912532,0 28.912531,0 -0.58016,-2.900801 z M 194.58073,110.75 c 3.49018,-13.8875 6.84423,-27.6125 7.45343,-30.5 l 1.10764,-5.25 44.9291,0 c 24.711,0 44.93441,0.3375 44.9409,0.75 0.006,0.4125 -3.23397,14.1375 -7.20101,30.5 l -7.21281,29.75 -45.18152,0 -45.18153,0 6.3458,-25.25 z m 26.86125,11.34388 c 0.30801,-0.49837 1.43916,-0.67622 2.51367,-0.39523 2.14012,0.55966 2.00854,0.89282 4.54739,-11.51403 C 231.25742,96.724497 230.28585,93 224.02029,93 221.32582,93 217,97.285308 217,99.954545 c 0,2.850165 2.44494,2.559095 3.81805,-0.454545 1.10323,-2.421345 4.49158,-3.426066 5.58541,-1.656204 0.28682,0.464088 0.2545,2.489084 -0.0718,4.500004 -0.54828,3.37859 -0.85259,3.6562 -4.00794,3.6562 -6.6375,0 -11.53467,8.97669 -7.91277,14.50441 1.6278,2.48433 5.88342,3.44638 7.03105,1.58947 z M 217,116.22251 C 217,112.37383 219.60459,109 222.57576,109 c 2.16422,0 2.39008,0.33295 1.8655,2.75 -1.08198,4.98524 -2.67832,7.25 -5.11024,7.25 C 217.44916,119 217,118.46481 217,116.22251 Z m 44.59355,5.39936 c 0.20272,-0.26411 7.40766,-37.173766 7.40707,-37.945194 -3.4e-4,-0.452828 -0.78617,-0.672041 -1.74628,-0.48714 -1.19256,0.229665 -2.07823,1.903789 -2.79528,5.283696 -1.03036,4.85672 -1.12035,4.949968 -4.90384,5.081354 -2.51016,0.08717 -4.33576,0.79238 -5.23506,2.022253 -2.02021,2.762798 -4.31811,11.044301 -4.98774,17.975581 -0.77233,7.9942 0.79667,9.8403 7.53298,8.86342 2.54903,-0.36966 4.6767,-0.72694 4.72815,-0.79397 z m -8.2968,-8.87187 c 1.04186,-11.1127 4.69289,-18.160359 7.7989,-15.054351 0.86759,0.867595 0.75289,3.295271 -0.46624,9.867551 -1.75052,9.43699 -2.78156,11.4368 -5.89646,11.4368 -1.87635,0 -1.97991,-0.45066 -1.4362,-6.25 z M 234,121.63924 c 0,-1.81521 4.43529,-21.54705 5.14501,-22.88924 0.97115,-1.836594 4.34499,-2.384207 5.28805,-0.85831 0.3031,0.49043 -0.5102,6.11543 -1.80733,12.5 C 240.36976,121.49569 240.34755,122 242.1146,122 c 1.96215,0 1.98102,-0.0508 4.38844,-11.81538 2.12887,-10.403419 1.98029,-14.855582 -0.54081,-16.204835 -1.13113,-0.605362 -3.02204,-0.75821 -4.25,-0.34354 -1.21673,0.410873 -2.9847,0.635063 -3.92882,0.4982 C 235.85626,93.85508 235.99063,93.435547 232.62159,110.25 230.35842,121.54523 230.33953,122 232.13365,122 233.16014,122 234,121.83766 234,121.63924 Z m 86,6.65132 c -5.6423,-2.07463 -6.32814,-7.57506 -2.98386,-23.93048 3.91635,-19.153159 6.64894,-23.814625 13.96036,-23.814625 8.4244,0 9.8319,5.766406 5.9987,24.576225 -3.08219,15.12459 -5.48338,20.77488 -9.55087,22.47438 -3.52417,1.4725 -4.94659,1.60555 -7.42433,0.6945 z m 5.69731,-4.7911 c 2.62727,-1.84021 4.72565,-7.95909 7.32124,-21.3488 C 335.54876,89.098227 335.5458,86.362472 333,85 c -2.74663,-1.469951 -5.81065,0.302581 -7.49613,4.3365 C 323.94136,93.076102 319,115.95087 319,119.44449 c 0,2.26474 2.27988,5.55551 3.84892,5.55551 0.38834,0 1.67011,-0.67524 2.84839,-1.50054 z m 17.54456,4.51294 c -3.93512,-1.66242 -4.73093,-5.05758 -3.34783,-14.28294 1.48771,-9.92311 4.41665,-22.143942 6.50518,-27.142495 2.70661,-6.477839 12.46817,-8.469785 16.09954,-3.285276 2.08798,2.981008 1.89127,7.020714 -1.04893,21.541871 -2.63776,13.02747 -4.98206,19.71337 -7.69808,21.95483 -2.11201,1.74298 -7.72342,2.39116 -10.50988,1.21401 z m 7.65809,-4.91236 c 2.63099,-2.63099 5.05058,-11.70428 8.49906,-31.870873 0.69566,-4.068181 -2.07699,-7.387646 -5.4368,-6.509036 -2.79183,0.730078 -4.53618,4.941816 -7.5514,18.232859 -2.92384,12.88825 -3.13307,19.52696 -0.66082,20.96691 2.44559,1.42443 2.99279,1.33731 5.14996,-0.81986 z M 294,126.67933 c 0,-1.18358 7.18443,-37.875417 8.50366,-43.42933 0.49949,-2.10286 1.06116,-2.25 8.58872,-2.25 7.13106,0 8.01606,0.200591 7.7209,1.75 -0.26626,1.397742 -1.55874,1.809132 -6.42099,2.043763 l -6.08763,0.293764 -1.28395,7.206236 c -0.70618,3.963431 -1.49787,7.768737 -1.75932,8.456237 -0.34238,0.90031 0.97383,1.25 4.70495,1.25 4.3937,0 5.12979,0.26573 4.84762,1.75 -0.25584,1.34574 -1.51544,1.81886 -5.45268,2.04808 l -5.11999,0.29807 -1.20254,6.20193 C 298.11166,127.39398 297.91399,128 295.91714,128 294.86271,128 294,127.4057 294,126.67933 Z m 72,-0.51002 C 366,124.61312 371.89683,94.032154 373.50469,87.25 373.98076,85.241866 373.65982,85 370.51905,85 367.66667,85 367,84.62111 367,83 c 0,-1.865407 0.66667,-2 9.90638,-2 9.41405,0 9.88039,0.0994 9.38337,2 -0.40297,1.540952 -1.36402,2 -4.18713,2 l -3.66413,0 -3.29587,16.75 C 369.77774,129.01493 370.05711,128 367.91714,128 366.72577,128 366,127.30696 366,126.16931 Z m 15,0.51002 c 0,-1.18358 7.18443,-37.875417 8.50366,-43.42933 0.48052,-2.022965 1.13795,-2.25 6.51539,-2.25 7.10798,0 9.98423,2.090427 9.97537,7.25 -0.008,4.544585 -1.70912,10.176096 -3.88669,12.86529 -1.6417,2.02741 -1.69495,2.62838 -0.48871,5.51532 2.52621,6.04607 -1.18625,17.93991 -6.33134,20.28418 C 391.77377,128.51583 381,128.33828 381,126.67933 Z m 13.46535,-5.05377 c 2.69386,-2.69386 4.42205,-10.98765 2.82214,-13.54379 -0.54452,-0.86997 -2.53517,-1.71566 -4.42366,-1.87931 l -3.43362,-0.29754 -1.71974,8.29754 c -0.94586,4.56365 -1.71766,8.63504 -1.71511,9.04754 0.0111,1.8019 6.23786,0.60769 8.46999,-1.62444 z m 3.10731,-21.934402 c 2.09736,-1.804069 2.79547,-3.466948 3.19318,-7.606053 0.55842,-5.811536 -0.28496,-7.042709 -4.84295,-7.069792 -2.45332,-0.01458 -2.64832,0.39299 -4.05939,8.484687 l -1.48228,8.5 2.25363,0 c 1.23949,0 3.46151,-1.03898 4.93781,-2.308842 z M 401.30737,126.75 c 0.28675,-0.6875 3.29407,-8 6.68295,-16.25 C 420.17501,80.837196 420.09797,81 421.95086,81 424.29383,81 425,87.866117 425,110.64669 L 425,128 l -2.5,0 c -2.4124,0 -2.5,-0.22968 -2.5,-6.55479 l 0,-6.55479 -4.61077,0.30479 -4.61077,0.30479 -2.49508,6.25 c -2.13008,5.33571 -2.86096,6.25 -4.99622,6.25 -1.6123,0 -2.31586,-0.44422 -1.97979,-1.25 z m 19.26544,-17.07914 c 0.28052,-0.73103 0.3789,-5.34353 0.21861,-10.250003 L 420.5,90.5 l -3.75,9.73929 c -2.0625,5.35662 -3.75,9.96912 -3.75,10.25 0,1.17814 7.10115,0.41068 7.57281,-0.81843 z m 6.74608,16.07914 c 0.29463,-1.2375 2.43377,-11.8125 4.75364,-23.5 4.07189,-20.514203 4.30014,-21.25 6.59176,-21.25 1.95366,0 2.27908,0.398241 1.83857,2.25 -0.29439,1.2375 -2.26502,10.9125 -4.37918,21.5 l -3.84393,19.25 5.96711,0 c 5.03039,0 5.87183,0.24831 5.36013,1.58179 -0.33385,0.86998 -0.60699,1.76998 -0.60699,2 0,0.23001 -3.64878,0.41821 -8.10841,0.41821 -7.90078,0 -8.09469,-0.0576 -7.5727,-2.25 z M 447,126.67933 C 447,125.49575 454.18443,88.803913 455.50366,83.25 456.00582,81.135911 460,79.866215 460,81.820673 c 0,0.45137 -1.8,9.757068 -4,20.679327 -2.2,10.92226 -4,20.22796 -4,20.67933 0,0.45137 2.475,0.82067 5.5,0.82067 4.83333,0 5.5,0.24242 5.5,2 0,1.83333 -0.66667,2 -8,2 -5.96166,0 -8,-0.3365 -8,-1.32067 z M 327.3752,68.061719 c -3.36082,-1.43088 -4.53594,-6.295764 -3.33566,-13.809251 1.78507,-11.174088 3.78615,-19.711548 6.01881,-25.678881 1.79435,-4.795816 2.75176,-6.014124 5.69147,-7.242414 C 342.30294,18.593105 348,21.766584 348,28.154988 348,31.529453 347.71102,32 345.63867,32 343.70158,32 343.35778,31.579206 343.72508,29.657834 344.16452,27.359055 341.88355,24 339.88312,24 c -2.03914,0 -5.79196,4.945963 -6.93136,9.135048 -2.26199,8.3164 -4.92555,22.382056 -4.93862,26.079768 -0.01,2.739957 0.52931,4.005125 2.05392,4.821072 2.65892,1.423015 6.62896,-0.976549 7.52547,-4.548538 C 338.03989,57.704932 338.89461,57 340.60841,57 341.92378,57 343,57.239453 343,57.532119 c 0,1.653854 -3.01319,7.225328 -4.73796,8.760625 -2.39822,2.134767 -7.92022,3.032023 -10.88684,1.768975 z M 206.30737,66.75 c 0.28675,-0.6875 3.29407,-8 6.68295,-16.25 C 225.17501,20.837196 225.09797,21 226.95086,21 229.29383,21 230,27.866117 230,50.646691 L 230,68 l -2.5,0 c -2.4124,0 -2.5,-0.229681 -2.5,-6.554791 l 0,-6.554791 -4.61077,0.304791 -4.61077,0.304791 -2.49508,6.25 c -2.13008,5.33571 -2.86096,6.25 -4.99622,6.25 -1.6123,0 -2.31586,-0.444218 -1.97979,-1.25 z m 19.26544,-17.079143 c 0.28052,-0.731029 0.3789,-5.343529 0.21861,-10.25 L 225.5,30.5 l -3.75,9.739294 c -2.0625,5.356611 -3.75,9.969111 -3.75,10.25 0,1.178138 7.10115,0.410676 7.57281,-0.818437 z M 232.31889,65.75 c 0.29463,-1.2375 2.43377,-11.8125 4.75364,-23.5 3.99475,-20.125554 4.33708,-21.25 6.46942,-21.25 2.07079,0 2.34939,0.702193 3.47166,8.75 0.6711,4.8125 1.51775,10.55 1.88144,12.75 l 0.66125,4 6.86763,-12.75 C 262.36111,22.727434 263.62522,21 265.75419,21 c 2.04589,0 2.37197,0.380751 1.92692,2.25 -0.29463,1.2375 -2.43377,11.8125 -4.75364,23.5 -4.10022,20.656935 -4.28554,21.25 -6.64009,21.25 -1.83234,0 -2.2993,-0.426139 -1.91765,-1.75 1.35805,-4.710652 5.72684,-28.486766 5.31081,-28.902794 -0.26195,-0.261949 -2.62697,3.602769 -5.2556,8.588262 C 247.84913,58.407215 246.66255,58.1984 244.8474,44.25 l -1.39893,-10.75 -3.4369,17.25 c -3.30276,16.576767 -3.5304,17.25 -5.83264,17.25 -1.97654,0 -2.30201,-0.393706 -1.86004,-2.25 z M 265,67.187135 C 265,66.740059 267.025,56.305848 269.5,44 271.975,31.694152 274,21.484941 274,21.312865 274,21.140789 277.6,21 282,21 c 7.33333,0 8,0.166667 8,2 0,1.77707 -0.66667,2 -5.98095,2 -5.3844,0 -6.03191,0.224417 -6.49191,2.25 C 274.06964,42.474958 274.00611,42 279.5,42 c 3.83333,0 4.5,0.296296 4.5,2 0,1.748665 -0.66667,2 -5.305,2 l -5.305,0 -1.28658,7.65686 c -0.70761,4.211273 -1.51851,8.261273 -1.80199,9 C 269.90781,63.68263 271.11089,64 275.39301,64 280.33333,64 281,64.237798 281,66 c 0,1.833333 -0.66667,2 -8,2 -4.4,0 -8,-0.365789 -8,-0.812865 z M 286.31889,65.75 c 0.29463,-1.2375 2.43377,-11.8125 4.75364,-23.5 l 4.21794,-21.25 6.35477,0 c 5.02143,0 6.77439,0.419633 8.35476,2 4.09086,4.090858 1.51847,18.42216 -4.00054,22.287824 -2.14994,1.505876 -2.18344,1.801917 -1.10821,9.791505 C 306.44571,66.629917 306.3627,68 304.10841,68 c -2.25758,0 -2.73258,-1.655089 -3.67446,-12.803512 -0.69359,-8.209401 -0.73111,-8.300072 -3.3106,-8 -2.47374,0.287769 -2.71011,0.835178 -4.55706,10.553512 -1.83135,9.636278 -2.09274,10.25 -4.36555,10.25 -1.99916,0 -2.32484,-0.389402 -1.88185,-2.25 z m 18.63599,-25.916204 c 2.51379,-4.1336 3.4934,-10.127662 2.08519,-12.758932 C 306.25232,25.602946 304.94685,25 302.54768,25 c -3.24661,0 -3.42467,0.199175 -4.4493,4.976876 -0.58704,2.737282 -1.35685,6.787282 -1.71067,9 L 295.74438,43 l 3.64251,0 c 3.01763,0 3.97283,-0.543167 5.56799,-3.166204 z M 311.23794,66.75 c 0.24856,-0.6875 2.42122,-11.2625 4.82814,-23.5 4.24136,-21.564358 4.44978,-22.25 6.76348,-22.25 1.96773,0 2.29311,0.395402 1.85155,2.25 -0.29463,1.2375 -2.43377,11.8125 -4.75364,23.5 -4.12261,20.769698 -4.27358,21.25 -6.6797,21.25 -1.54376,0 -2.29323,-0.466127 -2.00983,-1.25 z m 30.75246,0.569551 c -0.005,-0.450753 4.15721,-11.04755 9.25,-23.548437 8.19481,-20.115232 9.51833,-22.731314 11.5096,-22.75 L 365,21 l 0,23.5 c 0,22.833333 -0.0567,23.5 -2,23.5 -1.79487,0 -2,-0.666667 -2,-6.5 l 0,-6.5 -4.84233,0 -4.84232,0 -2.44496,6.25 c -1.85745,4.748151 -2.97667,6.326787 -4.65768,6.569551 -1.21699,0.175753 -2.21703,-0.04925 -2.22231,-0.5 z M 361,41.5 c 0,-5.225 -0.1827,-9.5 -0.406,-9.5 -0.2233,0 -1.07134,1.9125 -1.88455,4.25 -0.8132,2.3375 -2.42394,6.6125 -3.57941,9.5 l -2.10086,5.25 3.98541,0 3.98541,0 0,-9.5 z m 7,25.179327 c 0,-1.183573 7.18443,-37.875414 8.50366,-43.429327 0.3184,-1.340479 1.29022,-2.25 2.4041,-2.25 2.12748,0 2.11845,-0.03835 4.71129,20 l 1.74682,13.5 2.31306,-11.5 c 1.27219,-6.325 2.79677,-13.8625 3.38797,-16.75 0.84918,-4.14755 1.47999,-5.25 3.004,-5.25 1.061,0 1.9291,0.594303 1.9291,1.320673 0,1.183573 -7.18443,37.875414 -8.50366,43.429327 C 386.9845,67.904832 383,69.115665 383,67.116373 c 0,-1.631959 -4.0872,-31.536907 -4.34556,-31.795262 -0.14043,-0.140431 -1.27848,5.017369 -2.529,11.46178 C 372.00183,68.033365 372.0116,68 369.91714,68 368.86271,68 368,67.405697 368,66.679327 Z"
       style="fill:#fefefe" />
    <path
       id="path3544"
       d="m 213.15789,117 c 0,-1.375 0.22698,-1.9375 0.50439,-1.25 0.27741,0.6875 0.27741,1.8125 0,2.5 -0.27741,0.6875 -0.50439,0.125 -0.50439,-1.25 z m 39,-1 c 0,-1.375 0.22698,-1.9375 0.50439,-1.25 0.27741,0.6875 0.27741,1.8125 0,2.5 -0.27741,0.6875 -0.50439,0.125 -0.50439,-1.25 z M 223.8125,93.316886 c 0.72187,-0.288871 1.58437,-0.253344 1.91667,0.07895 0.33229,0.332292 -0.25834,0.568641 -1.3125,0.52522 -1.16495,-0.04798 -1.4019,-0.284941 -0.60417,-0.604167 z"
       style="fill:#c8c8d1" />
    <path
       id="path3542"
       d="m 221.75,108.33772 c 0.6875,-0.27741 1.8125,-0.27741 2.5,0 0.6875,0.27741 0.125,0.50439 -1.25,0.50439 -1.375,0 -1.9375,-0.22698 -1.25,-0.50439 z"
       style="fill:#9392a4" />
    <path
       id="path3540"
       d="m 222.26903,106.30701 c 0.97297,-0.25354 2.32297,-0.23687 3,0.037 0.67703,0.27393 -0.11903,0.48137 -1.76903,0.46099 -1.65,-0.0204 -2.20394,-0.2445 -1.23097,-0.49804 z M 237.5,95 c -0.33992,-0.55 -0.14148,-1 0.44098,-1 0.58246,0 1.05902,0.45 1.05902,1 0,0.55 -0.19844,1 -0.44098,1 -0.24254,0 -0.7191,-0.45 -1.05902,-1 z"
       style="fill:#5e5b76" />
    <path
       id="path3538"
       d="m 214.94365,119.8947 c -1.28488,-2.40081 -0.56212,-7.66663 1.42534,-10.38464 0.7859,-1.07478 3.1604,-2.08076 5.72094,-2.42373 4.19461,-0.56185 4.4044,-0.75256 5.02382,-4.56704 0.35553,-2.18939 0.42723,-4.551893 0.15934,-5.250002 -0.86559,-2.25569 -5.00996,-1.39838 -7.158,1.480712 -1.58883,2.12956 -2.05888,2.35518 -2.08341,1 -0.0458,-2.530608 3.56286,-5.75 6.44527,-5.75 1.47023,0 3.06924,0.914479 3.93424,2.25 1.28999,1.991695 1.23629,3.340619 -0.46781,11.75 -2.75394,13.59016 -2.87167,14 -4.02145,14 -0.57198,0 -0.76185,-0.45 -0.42193,-1 0.33992,-0.55 0.16803,-1 -0.38197,-1 -0.55,0 -1.27811,0.45 -1.61803,1 -1.11709,1.80749 -5.3823,1.08845 -6.55635,-1.1053 z m 8.42106,-2.1447 c 0.77594,-1.2375 1.70671,-3.9375 2.06836,-6 0.63824,-3.63982 0.57021,-3.75 -2.31518,-3.75 -2.02042,0 -3.63668,0.84407 -5.04531,2.63486 -2.00238,2.54562 -2.77549,7.32889 -1.40591,8.69847 1.47205,1.47206 5.35824,0.55341 6.69804,-1.58333 z m 7.8822,3 c 0.25349,-0.6875 1.50524,-6.71 2.78167,-13.38334 2.07819,-10.865023 2.53772,-12.13371 4.3961,-12.13692 1.14143,-0.002 3.04961,-0.321959 4.2404,-0.711086 1.64073,-0.536155 2.52589,-0.139715 3.6549,1.636922 1.33747,2.104671 1.26717,3.512712 -0.68737,13.768524 -1.19746,6.28325 -2.65944,11.58484 -3.24885,11.78131 -0.66469,0.22157 -0.21084,-4.06708 1.19514,-11.29337 1.24674,-6.40782 2.02837,-12.271912 1.73696,-13.031312 -0.8417,-2.193441 -5.1112,-1.636538 -6.66429,0.869272 -0.76699,1.2375 -2.15333,6.3 -3.08074,11.25 -2.12764,11.35605 -2.47039,12.5 -3.74521,12.5 -0.57178,0 -0.8322,-0.5625 -0.57871,-1.25 z M 251.2,120.8 c -1.63036,-1.63036 -1.50747,-6.55336 0.36961,-14.80623 2.36145,-10.38253 6.26647,-14.262062 10.49963,-10.431105 1.61256,1.459346 1.81018,1.095702 2.9889,-5.5 C 265.75233,86.178199 266.69824,83 267.16015,83 c 0.46192,0 0.84013,0.5625 0.84047,1.25 0.002,3.419012 -7.40574,37.75 -8.14515,37.75 C 259.38496,122 259,121.53417 259,120.96482 c 0,-0.71358 -0.60093,-0.71358 -1.93426,0 -2.54193,1.3604 -4.39252,1.3084 -5.86574,-0.16482 z m 7.66495,-2.55 c 1.47995,-2.76903 4.4513,-18.983489 3.7931,-20.698726 C 262.33065,96.698073 260.90068,96 259.48036,96 c -2.0002,0 -2.9082,0.779716 -4.02744,3.458443 -1.92796,4.614237 -3.96269,16.770747 -3.15803,18.867637 0.849,2.21246 5.37493,2.16004 6.57006,-0.0761 z"
       style="fill:#282549" />
  </g>
</svg>
