<?xml version="1.0" encoding="UTF-8" standalone="no"?>
<svg
   xmlns:dc="http://purl.org/dc/elements/1.1/"
   xmlns:cc="http://creativecommons.org/ns#"
   xmlns:rdf="http://www.w3.org/1999/02/22-rdf-syntax-ns#"
   xmlns:svg="http://www.w3.org/2000/svg"
   xmlns="http://www.w3.org/2000/svg"
   viewBox="0 0 672.96283 243.25777"
   height="243.25777"
   width="672.96283"
   version="1.1"
   id="svg3336">
  <metadata
     id="metadata3342">
    <rdf:RDF>
      <cc:Work
         rdf:about="">
        <dc:format>image/svg+xml</dc:format>
        <dc:type
           rdf:resource="http://purl.org/dc/dcmitype/StillImage" />
        <dc:title></dc:title>
      </cc:Work>
    </rdf:RDF>
  </metadata>
  <defs
     id="defs3340" />
  <path
     id="path3346"
     d="m 463.97691,240.9264 c -26.87507,-9.16361 -41.20794,-38.39374 -31.97917,-65.21761 2.96471,-8.61709 5.38538,-12.01188 17.11794,-24.00657 l 10.75961,-11 35.17366,-68.499997 c 19.34551,-37.675 35.97982,-69.3437496 36.96513,-70.3749996 2.04975,-2.14532 6.27449,-2.46032 8.47738,-0.63209 0.8237,0.68361 3.74392,8.30967 6.48938,16.9468096 l 4.99175,15.70389 15.26371,4.8219 c 8.39503,2.65204 15.98054,5.43803 16.85667,6.19107 0.87614,0.75305 3.80114,8.35591 6.5,16.89524 l 4.90703,15.52606 15.5,5.00878 c 8.525,2.75483 16.2147,5.77481 17.08821,6.71106 0.87352,0.93625 3.75001,8.50078 6.39221,16.810067 l 4.80401,15.10778 15.10778,4.81585 c 8.30929,2.64871 15.89529,5.48245 16.85779,6.2972 2.11013,1.7862 2.32397,7.45014 0.34333,9.09392 -0.77367,0.64209 -32.16117,16.9304 -69.75,36.19624 L 533.5,212.34981 523,222.65505 c -11.96408,11.74217 -17.81055,15.78774 -26.85534,18.58304 -9.09193,2.80988 -23.41998,2.67105 -32.16775,-0.31169 z m 27.32226,-11.73487 c 7.25226,-2.23999 15.35238,-7.81702 23.43859,-16.13775 l 5.23776,-5.38966 -27.27597,-27.26245 -27.27597,-27.26245 -8.70497,8.89577 c -11.89281,12.15347 -14.21868,17.17006 -14.21841,30.66723 1.9e-4,9.03136 0.28405,10.57907 2.93058,15.97819 3.5654,7.27372 10.5474,14.46359 17.43445,17.95352 9.72611,4.92859 18.26955,5.69706 28.43394,2.5576 z m 98.51783,-60.0928 c 32.27565,-16.55692 59.02038,-30.4168 59.43274,-30.79974 0.41236,-0.38294 -2.65474,-1.69787 -6.81577,-2.92206 l -7.5655,-2.22581 -52.89314,32.27555 c -29.09123,17.75155 -52.91163,32.61305 -52.93424,33.02555 -0.0226,0.4125 0.43906,0.75 1.02591,0.75 0.58685,0 27.47435,-13.54657 59.75,-30.10349 z m -16.72084,-13.14651 c 29.05684,-17.7375 52.84788,-32.7 52.86899,-33.25 0.0211,-0.55 -1.61351,-6.29522 -3.63247,-12.76715 l -3.67085,-11.767157 -12.45831,-3.98285 c -6.85207,-2.19056 -12.97152,-3.98284 -13.59878,-3.98284 -0.62726,0 -5.84939,4.725 -11.60474,10.499997 -8.85974,8.88999 -10.94657,10.5 -13.60969,10.5 -3.79305,0 -5.72364,-2.0642 -5.72364,-6.11977 0,-2.49526 1.84711,-4.86606 10.7458,-13.792427 l 10.74579,-10.77922 -4.09323,-12.98311 -4.09323,-12.98312 -11.7359,-3.69741 c -6.45474,-2.03357 -12.20329,-3.6856 -12.77455,-3.67117 -0.57125,0.0144 -9.74988,14.23521 -20.39695,31.60175 -10.64707,17.36654 -19.99932,32.216537 -20.78278,33.000007 -3.43511,3.4351 -10.29456,0.44169 -10.26719,-4.48052 0.009,-1.60607 7.83231,-15.326567 20.52889,-36.003197 l 20.51446,-33.40818 -2.16276,-6.59182 c -1.18953,-3.6255 -2.37538,-6.96377 -2.63523,-7.41838 -0.34832,-0.60938 -60.37708,114.678437 -61.56133,118.231187 -0.10915,0.32746 0.20358,0.74765 0.69497,0.93376 0.49139,0.1861 3.89838,-4.5389 7.57108,-10.5 7.42409,-12.04992 9.9263,-13.95039 14.45799,-10.98111 4.38346,2.87215 3.46924,6.61527 -4.91966,20.14273 l -7.44165,12 6.46123,6.48256 6.46123,6.48257 25.80241,-25.73257 c 18.43195,-18.38205 26.44547,-25.73256 28.05363,-25.73256 2.67173,0 7.16031,4.17566 7.16031,6.66112 0,0.96361 -11.69673,13.47933 -25.99274,27.81271 l -25.99274,26.06069 6.23274,6.23274 c 3.42801,3.42801 6.63449,6.23274 7.12551,6.23274 0.49103,0 24.66655,-14.5125 53.72339,-32.25 z M 8.8426374,189.22753 c -4.368864,-1.31984 -8.8428914,-4.35229 -8.8388994,-5.99092 0.0051,-2.09378 3.7179144,-8.03439 5.0214014,-8.03439 0.579995,0 2.818682,0.9 4.9748606,2 6.181751,3.15369 11.000001,2.25793 11.000001,-2.04501 0,-2.28959 -2.609297,-4.41968 -9.840234,-8.03302 C 3.1241644,163.10875 0,158.74788 0,151.54681 0,142.619 6.5182524,137.1922 17.217882,137.21199 c 5.052093,0.009 14.698777,3.42833 16.108404,5.70915 0.64476,1.04325 -1.701028,6.03101 -3.873109,8.23526 -1.252601,1.27115 -2.003986,1.17675 -5.969819,-0.75 -5.247837,-2.5496 -8.738461,-2.80665 -10.430307,-0.7681 -2.035448,2.45256 0.370829,5.01558 8.285506,8.8252 9.694747,4.66643 13.039239,8.81643 13.110548,16.26816 0.06005,6.27519 -2.085414,9.79733 -8.043121,13.20411 -4.092287,2.34008 -12.135124,2.93162 -17.5633466,1.29176 z M 110.42926,188.30941 c -5.45849,-2.47919 -10.09322,-8.31307 -11.383304,-14.3285 -0.57527,-2.68242 -1.04596,-11.82998 -1.04596,-20.32791 l 0,-15.45078 6.500004,0 6.5,0 0,16.94424 c 0,16.38511 0.0782,17.03517 2.37041,19.7 1.80513,2.09859 3.26687,2.75576 6.12959,2.75576 2.86272,0 4.32446,-0.65717 6.12959,-2.75576 2.29219,-2.66483 2.37041,-3.31489 2.37041,-19.7 l 0,-16.94424 6.5,0 6.5,0 -0.006,16.75 c -0.006,18.86149 -0.74387,22.75611 -5.29039,27.93431 -6.14539,6.99921 -16.78027,9.28099 -25.27477,5.42288 z m -67.429259,-24.60719 0,-25.5 6,0 6,0 0,9.5 0,9.5 10,0 10,0 0,-9.5 0,-9.5 6,0 6,0 0,25.5 0,25.5 -6,0 -6,0 0,-10 0,-10 -10,0 -10,0 0,10 0,10 -6,0 -6,0 0,-25.5 z M 158.66667,188.53555 C 158.3,188.16889 158,179.16889 158,168.53555 l 0,-19.33333 -5.5,0 -5.5,0 0,-5.5 0,-5.5 18.05226,0 18.05226,0 -0.30226,5.25 -0.30226,5.25 -5.75,0.2999 -5.75,0.29991 0,19.95009 0,19.9501 -5.83333,0 c -3.20834,0 -6.13334,-0.3 -6.5,-0.66667 z m 38,0 C 196.3,188.16889 196,179.16889 196,168.53555 l 0,-19.33333 -5.5,0 -5.5,0 0,-5.5 0,-5.5 18.05226,0 18.05226,0 -0.30226,5.25 -0.30226,5.25 -5.75,0.2999 -5.75,0.29991 0,19.95009 0,19.9501 -5.83333,0 c -3.20834,0 -6.13334,-0.3 -6.5,-0.66667 z M 227,163.70222 l 0,-25.5 6,0 6,0 0,20 0,20 9.5,0 9.5,0 0,5.5 0,5.5 -15.5,0 -15.5,0 0,-25.5 z m 37,0 0,-25.5 17,0 17,0 0,5.5 0,5.5 -10.5,0 -10.5,0 0,3.96107 0,3.96106 8.75,0.28894 8.75,0.28893 0,5.5 0,5.5 -8.75,0.28893 -8.75,0.28894 0,4.46106 0,4.46107 10.5,0 10.5,0 0,5.5 0,5.5 -17,0 -17,0 0,-25.5 z m -93.57688,-62.68537 c -2.01692,-4.023047 -4.84777,-9.339627 -6.29079,-11.814627 l -2.62366,-4.5 -1.50434,11 -1.50433,10.999997 -5.39279,0.30721 c -2.96603,0.16897 -5.74303,-0.056 -6.1711,-0.5 -0.42807,-0.44396 1.19904,-12.282207 3.61581,-26.307207 2.41676,-14.025 4.40626,-25.6125 4.4211,-25.75 0.0148,-0.1375 0.8417,-0.25 1.83748,-0.25 1.3132,0 4.08567,4.25747 10.0936,15.5 4.55571,8.525 8.57848,15.49373 8.9395,15.48608 0.36102,-0.008 4.2564,-6.81345 8.6564,-15.12398 7.7279,-14.59612 9.63897,-17.12636 11.51437,-15.24489 0.79862,0.80122 8.98563,47.094317 8.98563,50.808907 0,1.2539 -1.19883,1.57388 -5.89671,1.57388 l -5.89671,0 -1.17564,-8.749997 c -1.99122,-14.82018 -1.76248,-14.7657 -8.53829,-2.03361 -3.52217,6.618347 -6.69549,11.394967 -7.69753,11.586687 -1.24522,0.23824 -2.69358,-1.64592 -5.372,-6.98845 z m 94.04093,-6.884617 -14.40356,-14.28078 -0.28024,13.42538 -0.28025,13.425387 -5.75,0.2999 -5.75,0.29991 0,-26.549907 c 0,-23.62688 0.17546,-26.5499 1.59368,-26.5499 0.87653,0 7.96403,6.11431 15.75,13.58736 l 14.15632,13.58737 0.27903,-13.08737 0.27902,-13.08736 5.98758,0 5.98758,0 -0.26661,26.16713 c -0.20951,20.563347 -0.54847,26.260987 -1.5828,26.605397 -0.72391,0.24105 -7.7978,-5.98808 -15.71975,-13.842517 z m 83.25345,13.025947 c -5.72599,-1.42027 -8.98925,-3.40748 -13.13982,-8.001657 -5.11918,-5.66633 -6.84244,-10.21037 -6.85838,-18.0848 -0.0166,-8.19979 2.56901,-14.037 8.73549,-19.72106 4.35482,-4.01414 12.04769,-7.14844 17.54521,-7.14844 9.68888,0 21.26794,7.90036 24.68503,16.84253 2.09038,5.4703 2.25756,14.0527 0.38127,19.57333 -1.73227,5.09686 -8.50434,12.421437 -13.5663,14.673127 -5.07136,2.25587 -12.90064,3.07786 -17.7825,1.86697 z m 13.04164,-13.950557 c 6.39627,-3.89985 8.97586,-11.77011 5.83587,-17.80506 -5.39107,-10.36148 -18.55491,-10.8749 -24.60041,-0.95948 -5.28933,8.67519 1.69724,20.75166 12.0054,20.75166 1.925,0 4.96661,-0.8942 6.75914,-1.98712 z m 54.70491,0.92461 -14.40356,-14.28078 -0.28024,13.42538 -0.28025,13.425387 -5.75,0.2999 -5.75,0.29991 0,-26.549907 c 0,-23.62688 0.17546,-26.5499 1.59368,-26.5499 0.87653,0 7.96403,6.11431 15.75,13.58736 l 14.15632,13.58737 0.27903,-13.08737 0.27902,-13.08736 5.98758,0 5.98758,0 -0.26661,26.16713 c -0.20951,20.563347 -0.54847,26.260987 -1.5828,26.605397 -0.72391,0.24105 -7.7978,-5.98808 -15.71975,-13.842517 z M 3.0000004,81.202223 l 0,-26 11.2881096,0 c 9.73465,0 11.894179,0.30964 15.692058,2.25 8.616235,4.40208 10.270138,13.69969 3.619934,20.3499 l -3.24216,3.24216 2.323327,1.05857 c 1.27783,0.58222 3.220611,2.53026 4.317291,4.32897 4.180422,6.8565 1.349775,15.347957 -6.269219,18.806577 -3.389938,1.53885 -6.561376,1.92425 -15.979341,1.94186 l -11.7499996,0.022 0,-25.999997 z m 20.7774946,13.44329 c 4.513484,-3.16136 1.427839,-8.44329 -4.932482,-8.44329 l -3.845013,0 0,5 c 0,4.98296 0.01117,5 3.277495,5 1.802621,0 4.277621,-0.70052 5.5,-1.55671 z M 23.17126,74.547233 c 1.005808,-0.91024 1.828741,-2.45973 1.828741,-3.4433 0,-2.35953 -3.745822,-4.90171 -7.222506,-4.90171 -2.666327,0 -2.777495,0.20012 -2.777495,5 0,4.94889 0.03242,5 3.17126,5 1.744193,0 3.994193,-0.74475 5,-1.65499 z m 17.822066,31.404987 c -0.01293,-2.42158 23.420033,-51.749997 24.583311,-51.749997 0.648161,0 1.604222,0.5625 2.124581,1.25 2.314254,3.0576 23.335188,49.882077 22.789767,50.764587 -0.33496,0.54197 -3.090878,0.98541 -6.124263,0.98541 -5.485441,0 -5.524301,-0.0216 -7.190983,-3.98983 l -1.675738,-3.989831 -9.64142,-0.0102 -9.641421,-0.0102 -1.600482,4.000001 -1.600483,4 -6.008097,0 c -4.136251,0 -6.010177,-0.38944 -6.014772,-1.25 z M 68.686267,84.225783 c -2.254347,-5.13139 -3.098108,-5.92969 -3.988468,-3.77356 -0.283899,0.6875 -1.238083,2.9375 -2.120409,5 l -1.604229,3.75 4.949686,0 4.949687,0 -2.186267,-4.97644 z m 27.313729,-3.02356 0,-26 11.821864,0 c 7.98104,0 13.27872,0.4964 16.30601,1.5279 19.24077,6.55599 23.19027,33.96375 6.5127,45.195167 -6.5554,4.41469 -10.32794,5.26488 -23.39057,5.27135 l -11.250004,0.006 0,-25.999997 z m 25.701454,12.04048 c 4.69849,-2.86483 6.61236,-7.24281 6.06288,-13.86881 -0.39566,-4.77118 -0.93915,-5.94378 -4.09558,-8.83643 -3.28149,-3.00726 -4.23086,-3.33524 -9.65406,-3.33524 l -6.01469,0 0,14 0,14 5.25,-0.004 c 3.44153,-0.002 6.3528,-0.67616 8.45145,-1.95578 z M 214,81.252123 l 0,-26.0499 6.01688,0 6.01688,0 -0.26688,25.75 -0.26688,25.749997 -5.75,0.2999 -5.75,0.29991 0,-26.049907 z m 87,6 0,-19.9501 -5.75,-0.2999 -5.75,-0.2999 -0.3006,-5.77328 -0.3006,-5.77328 17.8006,0.27328 17.8006,0.27328 0.31105,4.90325 c 0.36844,5.80795 -0.4385,6.56008 -7.06105,6.58143 l -4.75,0.0153 0,20 0,19.999997 -6,0 -6,0 0,-19.950097 z"
     style="fill:#fefefe" />
</svg>
